<svg width="180" height="36" viewBox="0 0 180 36" fill="none" xmlns="http://www.w3.org/2000/svg">
<g clip-path="url(#clip0_196_1248)">
<path d="M180 6.49658H176.493V26.1392H180V6.49658Z" fill="#0078FE"/>
<path d="M170.428 26.1392H173.935L166.787 6.49658H162.74L155.592 26.1392H159.098L160.757 21.5788H168.769L170.428 26.1392ZM164.588 11.057H164.939L167.493 18.0722H162.036L164.59 11.057H164.588Z" fill="#0078FE"/>
<path d="M146.31 12.4601C143.938 12.4601 142.799 13.4717 142.283 14.3033C141.701 13.2981 140.685 12.4601 138.92 12.4601C137.156 12.4601 136.205 13.3024 135.615 14.0727V12.8093H132.419V25.0854H135.615V16.9274C135.886 16.282 136.499 15.4397 137.841 15.4397C138.997 15.4397 139.57 16.0344 139.852 16.6142C140.04 17.0015 140.118 17.429 140.118 17.8543V25.0854H143.039V16.7751C143.343 16.1487 143.968 15.4397 145.22 15.4397C146.391 15.4397 146.97 16.0344 147.254 16.6142C147.444 17.0015 147.523 17.429 147.523 17.8543V25.0854H150.477V16.5656C150.477 16.5656 150.064 12.458 146.312 12.458L146.31 12.4601Z" fill="black"/>
<path d="M129.22 25.0792H126.022V23.7608C125.239 24.7977 124.932 25.4389 122.786 25.4389C120.264 25.4389 117.727 23.4074 117.727 20.0405V12.8115H120.924V19.7442C120.909 21.6699 121.927 22.2815 123.271 22.2815C124.429 22.2815 126.022 21.6699 126.022 19.4903V12.8115H129.22V25.0792Z" fill="black"/>
<path d="M112.307 15.7741H115.136V12.8115H112.307V8.95361L109.175 9.97151V12.8115H107.124V15.7741H109.175C109.2 17.8099 109.175 19.9706 109.175 21.4011C109.175 24.8336 112.051 25.0875 112.051 25.0875H115.166V22.2984C115.166 22.2984 114.29 22.2815 113.348 22.273C112.77 22.2666 112.307 21.7968 112.307 21.2212V15.7763V15.7741Z" fill="black"/>
<path d="M101.364 12.4896C99.2943 12.4896 98.1706 13.2112 97.5653 14.0725V12.8091H94.3699V25.0852H97.5653V17.505C97.65 17.122 98.1515 15.4375 100.187 15.4375C102.477 15.4375 102.668 17.5177 102.668 17.5177V25.0831H105.846V16.5633C105.846 16.5633 105.402 12.4854 101.364 12.4854V12.4896Z" fill="black"/>
<path d="M87.9748 12.8116V14.0749C86.9104 13.093 85.5264 12.4688 84.0048 12.4688C80.6612 12.4688 77.8657 15.3404 77.8657 18.883C77.8657 22.4255 80.6591 25.4411 84.0048 25.4411C85.5264 25.4411 86.9125 24.7004 87.9748 23.7206V25.0898H91.1724V12.8137H87.9748V12.8116ZM84.481 22.2816C82.5595 22.2816 80.9998 20.8278 80.9998 18.9041C80.9998 16.9805 82.5573 15.442 84.481 15.442C86.4046 15.442 87.9748 16.9826 87.9748 18.9041C87.9748 20.8256 86.4025 22.2816 84.481 22.2816Z" fill="black"/>
<path d="M75.5632 25.0792H72.3656V23.7608C71.5826 24.7977 71.2757 25.4389 69.1299 25.4389C66.6074 25.4389 64.0701 23.4074 64.0701 20.0405V12.8115H67.2676V19.7442C67.2528 21.6699 68.2707 22.2815 69.6145 22.2815C70.7721 22.2815 72.3656 21.6699 72.3656 19.4903V12.8115H75.5632V25.0792Z" fill="black"/>
<path d="M62.2227 23.9192L59.8737 21.5702C60.9065 20.0867 61.5117 18.2774 61.5117 16.3178C61.5117 11.2643 57.4592 7.16309 52.3824 7.16309C47.3056 7.16309 43.2764 11.2643 43.2764 16.3178C43.2764 21.3713 47.3035 25.4725 52.3824 25.4725C54.2404 25.4725 55.9609 24.9244 57.3957 23.9827L59.7785 26.3655L62.2248 23.9192H62.2227ZM52.3824 22.2008C49.1361 22.2008 46.5734 19.564 46.5734 16.3178C46.5734 13.0715 49.1361 10.4347 52.3824 10.4347C55.6286 10.4347 58.2168 13.0715 58.2168 16.3178C58.2168 17.3568 57.9501 18.3303 57.4824 19.1789L54.8393 16.5357L52.393 18.9821L54.9896 21.5787C54.2066 21.9723 53.322 22.2008 52.3803 22.2008H52.3824Z" fill="black"/>
<path d="M35.6031 29.6396H29.6396V35.6031H35.6031V29.6396Z" fill="#0078FE"/>
<path d="M27.8428 27.8431L24.6706 24.6709C24.4844 24.8317 24.2875 24.9841 24.0886 25.1322L27.0936 28.5414C27.3497 28.315 27.6015 28.0843 27.8428 27.8431Z" fill="#0078FE" fill-opacity="0.5"/>
<path d="M24.0887 25.132C23.8919 25.278 23.6888 25.4177 23.4792 25.551L26.3044 29.193C26.5753 28.9835 26.8377 28.7655 27.0937 28.5391L24.0887 25.1299V25.132Z" fill="#0078FE" fill-opacity="0.51"/>
<path d="M23.4793 25.5532C23.274 25.6844 23.0603 25.8072 22.8423 25.9236L25.4748 29.7983C25.7563 29.6058 26.0335 29.4047 26.3023 29.1952L23.4771 25.5532H23.4793Z" fill="#0078FE" fill-opacity="0.52"/>
<path d="M22.1885 26.2492L24.6136 30.3483C24.9078 30.1748 25.1956 29.9907 25.4771 29.7981L22.8445 25.9233C22.6308 26.0376 22.4128 26.1477 22.1906 26.2492H22.1885Z" fill="#0078FE" fill-opacity="0.53"/>
<path d="M21.5155 26.5267L23.7143 30.8417C24.019 30.6851 24.3195 30.5221 24.6115 30.3486L22.1864 26.2495C21.9684 26.349 21.742 26.44 21.5134 26.5267H21.5155Z" fill="#0078FE" fill-opacity="0.54"/>
<path d="M23.7141 30.8413L21.5153 26.5264C21.291 26.611 21.0646 26.6914 20.8318 26.7613L22.785 31.273C23.0982 31.1376 23.4093 30.9958 23.7141 30.8392V30.8413Z" fill="#0078FE" fill-opacity="0.55"/>
<path d="M20.8341 26.7617C20.6077 26.8316 20.377 26.8908 20.1421 26.9479L21.8351 31.6523C22.1567 31.5359 22.4741 31.411 22.7873 31.2756L20.8341 26.7638V26.7617Z" fill="#0078FE" fill-opacity="0.56"/>
<path d="M19.4436 27.0957L20.8615 31.9736C21.1916 31.8783 21.5133 31.7683 21.8349 31.654L20.142 26.9497C19.9134 27.0047 19.6806 27.0534 19.4457 27.0957H19.4436Z" fill="#0078FE" fill-opacity="0.57"/>
<path d="M18.7454 27.2036L19.8691 32.2275C20.2034 32.1534 20.5357 32.0688 20.8616 31.9736L19.4437 27.0957C19.2152 27.138 18.9824 27.174 18.7454 27.2036Z" fill="#0078FE" fill-opacity="0.58"/>
<path d="M18.7452 27.2038C18.5167 27.2313 18.2818 27.2525 18.0469 27.2694L18.8616 32.4181C19.2002 32.3652 19.5367 32.2996 19.8689 32.2255L18.7452 27.2017V27.2038Z" fill="#0078FE" fill-opacity="0.59"/>
<path d="M17.3486 27.2988L17.8438 32.5449C18.1866 32.5132 18.5252 32.4708 18.8596 32.4158L18.0449 27.2671C17.8163 27.284 17.5835 27.2925 17.3486 27.2988Z" fill="#0078FE" fill-opacity="0.6"/>
<path d="M17.0439 27.3053C16.9148 27.3053 16.7836 27.3011 16.6545 27.2969L16.8217 32.6064C17.1645 32.5958 17.5074 32.5768 17.8438 32.5451L17.3487 27.299C17.2471 27.3011 17.1455 27.3053 17.0439 27.3053Z" fill="#0078FE" fill-opacity="0.61"/>
<path d="M15.9667 27.2568L15.7996 32.6087C15.971 32.6129 16.1403 32.6214 16.3117 32.6214C16.4831 32.6214 16.6524 32.6129 16.8238 32.6087L16.6566 27.2992C16.426 27.2907 16.1953 27.278 15.9667 27.2568Z" fill="#0078FE" fill-opacity="0.62"/>
<path d="M15.2833 27.1719L14.7754 32.547C15.114 32.5788 15.4547 32.5978 15.7975 32.6084L15.9647 27.2565C15.734 27.2354 15.5076 27.2057 15.2812 27.1719H15.2833Z" fill="#0078FE" fill-opacity="0.63"/>
<path d="M15.2831 27.1719C15.0567 27.138 14.8302 27.0978 14.608 27.0513L13.7573 32.4201C14.0938 32.473 14.4324 32.5153 14.7731 32.5492L15.281 27.174L15.2831 27.1719Z" fill="#0078FE" fill-opacity="0.64"/>
<path d="M13.9457 26.8887L12.7522 32.2279C13.0844 32.3019 13.4188 32.3654 13.7595 32.4204L14.6102 27.0516C14.3859 27.0051 14.1658 26.95 13.9479 26.8887H13.9457Z" fill="#0078FE" fill-opacity="0.65"/>
<path d="M13.2961 26.6875L11.7598 31.9738C12.0857 32.069 12.4179 32.1536 12.7523 32.2277L13.9458 26.8885C13.7257 26.8272 13.5099 26.7616 13.2961 26.6875Z" fill="#0078FE" fill-opacity="0.66"/>
<path d="M13.2962 26.6872C13.0803 26.6131 12.8687 26.537 12.6592 26.4502L10.7864 31.6518C11.1059 31.7682 11.4297 31.8761 11.7598 31.9714L13.2962 26.6851V26.6872Z" fill="#0078FE" fill-opacity="0.67"/>
<path d="M12.0412 26.1753L9.83398 31.2753C10.1472 31.4108 10.4646 31.5356 10.7863 31.652L12.6591 26.4504C12.4496 26.3658 12.2443 26.2726 12.0412 26.1753Z" fill="#0078FE" fill-opacity="0.68"/>
<path d="M11.4402 25.8662L8.90503 30.8414C9.20765 30.9959 9.51873 31.1377 9.83404 31.2752L12.0412 26.1752C11.8381 26.0778 11.637 25.9763 11.4402 25.8662Z" fill="#0078FE" fill-opacity="0.69"/>
<path d="M10.8626 25.5215L8.00781 30.3485C8.30196 30.5221 8.60035 30.685 8.90508 30.8416L11.4403 25.8664C11.2435 25.7564 11.0509 25.64 10.8626 25.5215Z" fill="#0078FE" fill-opacity="0.7"/>
<path d="M10.8624 25.5212C10.6719 25.4006 10.4878 25.2757 10.3058 25.1445L7.14209 29.7981C7.42354 29.9906 7.71135 30.1747 8.0055 30.3483L10.8603 25.5212H10.8624Z" fill="#0078FE" fill-opacity="0.71"/>
<path d="M9.77469 24.7344L6.3147 29.1953C6.58346 29.4048 6.86068 29.6059 7.14213 29.7984L10.3059 25.1449C10.1239 25.0137 9.94822 24.8783 9.77469 24.7365V24.7344Z" fill="#0078FE" fill-opacity="0.72"/>
<path d="M9.27115 24.2939L5.52759 28.5412C5.78365 28.7676 6.04606 28.9856 6.31693 29.1951L9.77692 24.7341C9.60339 24.5923 9.43621 24.4463 9.27327 24.2939H9.27115Z" fill="#0078FE" fill-opacity="0.73"/>
<path d="M8.79284 23.8283L4.78052 27.8406C5.02176 28.0819 5.27148 28.3168 5.52754 28.5411L9.2711 24.2939C9.10815 24.1415 8.94732 23.987 8.79284 23.8262V23.8283Z" fill="#0078FE" fill-opacity="0.74"/>
<path d="M8.34846 23.3311L4.08008 27.0937C4.30651 27.3497 4.53929 27.5994 4.78054 27.8407L8.79286 23.8284C8.63838 23.6675 8.49025 23.5004 8.34634 23.3311H8.34846Z" fill="#0078FE" fill-opacity="0.75"/>
<path d="M7.93142 22.8105L3.42603 26.3044C3.63553 26.5753 3.8535 26.8377 4.07993 27.0937L8.34831 23.3311C8.20441 23.1618 8.06474 22.9883 7.93142 22.8105Z" fill="#0078FE" fill-opacity="0.76"/>
<path d="M7.93151 22.8106C7.79819 22.6329 7.67334 22.4488 7.5506 22.2646L2.823 25.477C3.01557 25.7585 3.21661 26.0357 3.42612 26.3045L7.93151 22.8106Z" fill="#0078FE" fill-opacity="0.77"/>
<path d="M7.20346 21.6973L2.27271 24.6134C2.44623 24.9075 2.63034 25.1953 2.82292 25.4768L7.55052 22.2644C7.42989 22.0782 7.3135 21.8898 7.20346 21.6973Z" fill="#0078FE" fill-opacity="0.78"/>
<path d="M6.89245 21.1091L1.77759 23.7141C1.93419 24.0188 2.09713 24.3193 2.27066 24.6114L7.20142 21.6952C7.09137 21.5027 6.9898 21.3059 6.89245 21.1069V21.1091Z" fill="#0078FE" fill-opacity="0.79"/>
<path d="M6.89243 21.1091C6.79509 20.9102 6.70409 20.7092 6.61944 20.5039L1.34375 22.7873C1.47919 23.1005 1.62097 23.4116 1.77757 23.7163L6.89243 21.1113V21.1091Z" fill="#0078FE" fill-opacity="0.8"/>
<path d="M6.38672 19.8838L0.969238 21.8349C1.08563 22.1566 1.21049 22.474 1.34592 22.7872L6.62162 20.5038C6.53697 20.3007 6.45867 20.0933 6.38672 19.8838Z" fill="#0078FE" fill-opacity="0.81"/>
<path d="M6.19623 19.249L0.649658 20.8616C0.744887 21.1917 0.85493 21.5134 0.969205 21.835L6.38668 19.8839C6.31685 19.6765 6.25336 19.4628 6.19623 19.249Z" fill="#0078FE" fill-opacity="0.82"/>
<path d="M6.0417 18.6055L0.393555 19.8688C0.467622 20.2032 0.55227 20.5354 0.647499 20.8613L6.19407 19.2488C6.13693 19.0372 6.08402 18.8234 6.0417 18.6055Z" fill="#0078FE" fill-opacity="0.83"/>
<path d="M6.04173 18.6056C6.0375 18.5886 6.03326 18.5717 6.03115 18.5548C5.98882 18.358 5.95073 18.159 5.91899 17.958L0.203125 18.8616C0.25603 19.2002 0.321632 19.5367 0.395699 19.8689L6.04384 18.6056H6.04173Z" fill="#0078FE" fill-opacity="0.84"/>
<path d="M5.83851 17.2998L0.0739746 17.8458C0.105718 18.1886 0.148042 18.5272 0.203063 18.8616L5.92104 17.9558C5.88718 17.74 5.85967 17.5199 5.83851 17.2998Z" fill="#0078FE" fill-opacity="0.85"/>
<path d="M5.79628 16.6418L0.0126953 16.8216C0.0232763 17.1645 0.0423222 17.5073 0.0740652 17.8438L5.8386 17.2999C5.81744 17.0819 5.80474 16.8618 5.79839 16.6396L5.79628 16.6418Z" fill="#0078FE" fill-opacity="0.86"/>
<path d="M5.78782 16.3095C5.78782 16.1994 5.79205 16.0894 5.79628 15.9794L0.0126972 15.7974C0.00846481 15.9688 0 16.1381 0 16.3095C0 16.4809 0.00846481 16.6502 0.0126972 16.8216L5.79628 16.6396C5.79205 16.5296 5.78782 16.4195 5.78782 16.3095Z" fill="#0078FE" fill-opacity="0.87"/>
<path d="M5.83649 15.3193L0.0740652 14.7754C0.0423222 15.114 0.0232763 15.4547 0.0126953 15.7975L5.79628 15.9795C5.80263 15.7573 5.81532 15.5372 5.83649 15.3193Z" fill="#0078FE" fill-opacity="0.88"/>
<path d="M0.0739746 14.7755L5.8364 15.3194C5.85756 15.0993 5.88295 14.8792 5.91893 14.6634L0.203063 13.7598C0.150158 14.0962 0.107834 14.4348 0.0739746 14.7755Z" fill="#0078FE" fill-opacity="0.89"/>
<path d="M0.393502 12.7524C0.319435 13.0847 0.255949 13.419 0.200928 13.7598L5.91679 14.6655C5.95065 14.4475 5.99509 14.2317 6.04165 14.0158L0.393502 12.7524Z" fill="#0078FE" fill-opacity="0.9"/>
<path d="M6.20676 13.3744L0.647499 11.7598C0.55227 12.0857 0.467622 12.4179 0.393555 12.7523L6.0417 14.0156C6.09037 13.7998 6.14539 13.586 6.20676 13.3765V13.3744Z" fill="#0078FE" fill-opacity="0.91"/>
<path d="M0.647461 11.7596L6.20673 13.3742C6.2681 13.1626 6.33581 12.951 6.40988 12.7457L0.969124 10.7861C0.852733 11.1057 0.744806 11.4295 0.649577 11.7596H0.647461Z" fill="#0078FE" fill-opacity="0.92"/>
<path d="M0.969238 10.7863L6.41 12.7459C6.48406 12.5385 6.5666 12.3332 6.65548 12.1322L1.34592 9.83398C1.21049 10.1472 1.08563 10.4646 0.969238 10.7863Z" fill="#0078FE" fill-opacity="0.93"/>
<path d="M1.77977 8.90723C1.62529 9.20984 1.4835 9.52093 1.34595 9.83624L6.6555 12.1344C6.74438 11.9313 6.83961 11.7324 6.93907 11.5377L1.77977 8.90934V8.90723Z" fill="#0078FE" fill-opacity="0.94"/>
<path d="M7.25652 10.9557L2.27286 8.00781C2.09933 8.30196 1.93638 8.60035 1.77979 8.90508L6.93909 11.5334C7.03855 11.3366 7.14436 11.144 7.25652 10.9536V10.9557Z" fill="#0078FE" fill-opacity="0.95"/>
<path d="M2.27287 8.00762L7.25653 10.9555C7.36869 10.765 7.48719 10.5788 7.60993 10.3968L2.82096 7.14209C2.62839 7.42354 2.44428 7.71135 2.27075 8.0055L2.27287 8.00762Z" fill="#0078FE" fill-opacity="0.96"/>
<path d="M3.42612 6.31689C3.21661 6.58565 3.01557 6.86287 2.823 7.14433L7.61197 10.399C7.73682 10.2171 7.86803 10.0393 8.00346 9.86577L3.42823 6.31689H3.42612Z" fill="#0078FE" fill-opacity="0.97"/>
<path d="M8.42254 9.35572L4.07798 5.52539C3.85155 5.78145 3.63358 6.04386 3.42407 6.31473L7.9993 9.86361C8.13474 9.69008 8.27441 9.52078 8.42043 9.35572H8.42254Z" fill="#0078FE" fill-opacity="0.98"/>
<path d="M8.87328 8.87317L4.77842 4.77832C4.53718 5.01957 4.30651 5.2714 4.08008 5.52746L8.42464 9.35778C8.57066 9.19272 8.71879 9.02977 8.87539 8.87529L8.87328 8.87317Z" fill="#0078FE" fill-opacity="0.99"/>
<path d="M16.3097 0C11.8064 0 7.72847 1.82628 4.77637 4.77627L8.87122 8.87112C10.7758 6.96654 13.4084 5.7857 16.3076 5.7857C21.9303 5.7857 26.4865 10.2191 26.4865 15.6895C26.4865 18.6289 25.1702 21.2678 23.0794 23.0814L27.8409 27.8429C30.793 24.8908 32.6171 20.8129 32.6171 16.3096C32.6214 7.30302 25.3183 0 16.3097 0Z" fill="#0078FE"/>
</g>
<defs>
<clipPath id="clip0_196_1248">
<rect width="180" height="35.603" fill="white"/>
</clipPath>
</defs>
</svg>
