<svg width="245" height="216" viewBox="0 0 245 216" fill="none" xmlns="http://www.w3.org/2000/svg">
<rect x="0.5" y="0.500244" width="244" height="215" rx="1.5" fill="white"/>
<path d="M97.6793 22.9602V19.1202H99.1673V29.4562H97.6793V24.1602H94.9913V22.9602H97.6793ZM87.5193 26.5442C88.586 26.1709 89.434 25.5682 90.0633 24.7362C90.6926 23.8936 91.0073 22.9709 91.0073 21.9682V21.4082H87.9513V20.2242H95.5033V21.4082H92.4953V21.9682C92.4953 22.8856 92.7993 23.7389 93.4073 24.5282C94.0153 25.3176 94.8313 25.8882 95.8553 26.2402L95.1353 27.4082C94.3673 27.1309 93.6953 26.7256 93.1193 26.1922C92.5433 25.6482 92.1006 25.0189 91.7913 24.3042C91.482 25.0936 91.0233 25.7869 90.4153 26.3842C89.818 26.9816 89.1033 27.4296 88.2713 27.7282L87.5193 26.5442ZM90.0633 28.5602H91.5513V31.7282H99.5353V32.9442H90.0633V28.5602ZM112.688 19.0882V33.2642H111.2V25.9202H108.304V24.7042H111.2V19.0882H112.688ZM101.024 29.3922C101.717 29.0722 102.325 28.6082 102.848 28.0002C103.381 27.3922 103.792 26.7096 104.08 25.9522C104.378 25.1949 104.528 24.4216 104.528 23.6322V22.7042H101.424V21.5362H104.512V19.3922H105.984V21.5362H109.024V22.7042H105.984V23.6322C105.984 24.3789 106.133 25.1202 106.432 25.8562C106.73 26.5816 107.146 27.2376 107.68 27.8242C108.224 28.4002 108.842 28.8482 109.536 29.1682L108.752 30.3042C107.952 29.9416 107.253 29.4136 106.656 28.7202C106.058 28.0162 105.6 27.2109 105.28 26.3042C104.97 27.2536 104.512 28.1016 103.904 28.8482C103.306 29.5949 102.613 30.1602 101.824 30.5442L101.024 29.3922ZM126.112 19.0882V33.2642H124.64V19.0882H126.112ZM115.28 20.3842H121.84V25.5522H116.8V28.6562C118.037 28.6562 119.173 28.6242 120.208 28.5602C121.243 28.4856 122.309 28.3522 123.408 28.1602L123.552 29.3602C122.389 29.5522 121.259 29.6856 120.16 29.7602C119.061 29.8349 117.84 29.8722 116.496 29.8722H115.312V24.3522H120.352V21.6002H115.28V20.3842ZM142.856 19.1042V33.2322H141.384V19.1042H142.856ZM131.368 29.4882C133.203 28.5922 134.595 27.5096 135.544 26.2402C136.504 24.9602 137.059 23.4829 137.208 21.8082H132.04V20.6082H138.696C138.696 22.7949 138.179 24.7362 137.144 26.4322C136.109 28.1282 134.445 29.5362 132.152 30.6562L131.368 29.4882ZM146.856 19.8402V21.9042H150.376V19.8402H151.848V22.5282H154.904V19.1202H156.376V26.8322H154.904V23.7282H151.848V26.3362H145.384V19.8402H146.856ZM150.376 25.1522V23.0562H146.856V25.1522H150.376ZM147.256 27.5042H148.712V29.0882H154.92V27.5042H156.36V33.0402H147.256V27.5042ZM154.92 31.8562V30.2402H148.712V31.8562H154.92Z" fill="#212121"/>
<rect x="16" y="52.0002" width="213" height="22" rx="2" fill="#F5F5F5"/>
<path d="M60.9444 56.7582V69.0502H59.8664V56.7582H60.9444ZM51.3824 61.9802C51.3824 61.1309 51.513 60.3842 51.7744 59.7402C52.045 59.0962 52.4137 58.6016 52.8804 58.2562C53.3564 57.9016 53.893 57.7242 54.4904 57.7242C55.0877 57.7242 55.6197 57.9016 56.0864 58.2562C56.5624 58.6016 56.931 59.0962 57.1924 59.7402C57.463 60.3842 57.5984 61.1309 57.5984 61.9802C57.5984 62.8296 57.463 63.5809 57.1924 64.2342C56.931 64.8782 56.5624 65.3776 56.0864 65.7322C55.6197 66.0776 55.0877 66.2502 54.4904 66.2502C53.893 66.2502 53.3564 66.0776 52.8804 65.7322C52.4137 65.3776 52.045 64.8782 51.7744 64.2342C51.513 63.5809 51.3824 62.8296 51.3824 61.9802ZM52.4184 61.9802C52.4184 62.6429 52.507 63.2262 52.6844 63.7302C52.8617 64.2342 53.1044 64.6262 53.4124 64.9062C53.7297 65.1769 54.089 65.3122 54.4904 65.3122C54.901 65.3122 55.2604 65.1769 55.5684 64.9062C55.8857 64.6262 56.133 64.2342 56.3104 63.7302C56.4877 63.2262 56.5764 62.6429 56.5764 61.9802C56.5764 61.3176 56.4877 60.7389 56.3104 60.2442C56.133 59.7402 55.8857 59.3529 55.5684 59.0822C55.2604 58.8116 54.901 58.6762 54.4904 58.6762C54.089 58.6762 53.7297 58.8116 53.4124 59.0822C53.1044 59.3529 52.8617 59.7402 52.6844 60.2442C52.507 60.7482 52.4184 61.3269 52.4184 61.9802ZM69.4707 57.9762V65.9282H63.8707V57.9762H69.4707ZM68.4487 65.0742V58.8442H64.9067V65.0742H68.4487ZM72.1027 56.7582H73.1667V69.0502H72.1027V56.7582ZM82.659 58.0322V58.9282H79.761V60.5522C79.761 61.2336 79.9103 61.9102 80.209 62.5822C80.5077 63.2449 80.909 63.8376 81.413 64.3602C81.917 64.8829 82.463 65.2749 83.051 65.5362L82.435 66.3762C81.7257 66.0496 81.0863 65.5502 80.517 64.8782C79.9477 64.2062 79.5183 63.4456 79.229 62.5962C78.949 63.4922 78.5197 64.3089 77.941 65.0462C77.3717 65.7836 76.737 66.3296 76.037 66.6842L75.421 65.8302C75.9997 65.5502 76.5363 65.1302 77.031 64.5702C77.535 64.0009 77.9363 63.3616 78.235 62.6522C78.5337 61.9429 78.683 61.2429 78.683 60.5522V58.9282H75.813V58.0322H82.659ZM84.353 56.7722H85.417V69.0502H84.353V56.7722ZM101.944 63.0582V63.9262H97.0019V66.4322H95.9379V63.9262H90.8419V63.0582H101.944ZM92.2699 65.2562H93.3199V67.8742H100.712V68.7562H92.2699V65.2562ZM92.2839 57.3602H100.502V61.6442H92.2839V57.3602ZM99.4519 60.7762V58.2002H93.3199V60.7762H99.4519ZM112.122 60.9722V56.7582H113.172V69.0502H112.122V61.8402H109.224V60.9722H112.122ZM103.106 65.5782C103.694 65.2796 104.231 64.8409 104.716 64.2622C105.202 63.6836 105.584 63.0256 105.864 62.2882C106.154 61.5509 106.298 60.8136 106.298 60.0762V57.8362H107.362V60.0762C107.362 60.7949 107.502 61.5089 107.782 62.2182C108.072 62.9276 108.459 63.5622 108.944 64.1222C109.43 64.6729 109.962 65.0836 110.54 65.3542L109.91 66.2082C109.22 65.8536 108.604 65.3309 108.062 64.6402C107.521 63.9402 107.115 63.1516 106.844 62.2742C106.574 63.1982 106.168 64.0289 105.626 64.7662C105.085 65.5036 104.469 66.0589 103.778 66.4322L103.106 65.5782ZM128.957 56.7582V69.0362H127.935V56.7582H128.957ZM119.031 58.2842H123.623V59.1522H120.067V65.1722C120.991 65.1722 121.761 65.1489 122.377 65.1022C123.002 65.0462 123.628 64.9482 124.253 64.8082L124.351 65.7042C123.688 65.8442 123.026 65.9376 122.363 65.9842C121.7 66.0309 120.851 66.0542 119.815 66.0542H119.031V58.2842ZM122.797 61.4622H125.457V57.0802H126.465V68.3922H125.457V62.3582H122.797V61.4622ZM140.815 56.7582V69.0502H139.737V56.7582H140.815ZM131.253 61.9802C131.253 61.1309 131.384 60.3842 131.645 59.7402C131.916 59.0962 132.285 58.6016 132.751 58.2562C133.227 57.9016 133.764 57.7242 134.361 57.7242C134.959 57.7242 135.491 57.9016 135.957 58.2562C136.433 58.6016 136.802 59.0962 137.063 59.7402C137.334 60.3842 137.469 61.1309 137.469 61.9802C137.469 62.8296 137.334 63.5809 137.063 64.2342C136.802 64.8782 136.433 65.3776 135.957 65.7322C135.491 66.0776 134.959 66.2502 134.361 66.2502C133.764 66.2502 133.227 66.0776 132.751 65.7322C132.285 65.3776 131.916 64.8782 131.645 64.2342C131.384 63.5809 131.253 62.8296 131.253 61.9802ZM132.289 61.9802C132.289 62.6429 132.378 63.2262 132.555 63.7302C132.733 64.2342 132.975 64.6262 133.283 64.9062C133.601 65.1769 133.96 65.3122 134.361 65.3122C134.772 65.3122 135.131 65.1769 135.439 64.9062C135.757 64.6262 136.004 64.2342 136.181 63.7302C136.359 63.2262 136.447 62.6429 136.447 61.9802C136.447 61.3176 136.359 60.7389 136.181 60.2442C136.004 59.7402 135.757 59.3529 135.439 59.0822C135.131 58.8116 134.772 58.6762 134.361 58.6762C133.96 58.6762 133.601 58.8116 133.283 59.0822C132.975 59.3529 132.733 59.7402 132.555 60.2442C132.378 60.7482 132.289 61.3269 132.289 61.9802ZM153.094 56.7582V69.0502H152.044V62.3022H149.454V61.4202H152.044V56.7582H153.094ZM143.616 57.8922H149.258V58.7742H144.666V61.3502H148.726V62.2042H144.666V65.2002C145.879 65.2002 146.873 65.1769 147.648 65.1302C148.432 65.0742 149.225 64.9716 150.028 64.8222L150.14 65.7042C149.29 65.8536 148.45 65.9562 147.62 66.0122C146.798 66.0589 145.772 66.0822 144.54 66.0822H143.616V57.8922ZM167.493 60.1882V56.7862H168.571V65.7602H167.493V61.0562H164.987V60.1882H167.493ZM158.547 63.3382C159.461 63.0116 160.203 62.4796 160.773 61.7422C161.351 60.9956 161.641 60.1789 161.641 59.2922V58.6622H158.883V57.7942H165.435V58.6622H162.719V59.2922C162.719 59.8242 162.845 60.3422 163.097 60.8462C163.349 61.3409 163.699 61.7842 164.147 62.1762C164.604 62.5589 165.122 62.8529 165.701 63.0582L165.169 63.8982C164.487 63.6462 163.89 63.2776 163.377 62.7922C162.863 62.2976 162.471 61.7282 162.201 61.0842C161.939 61.7936 161.538 62.4236 160.997 62.9742C160.455 63.5156 159.825 63.9216 159.107 64.1922L158.547 63.3382ZM160.759 64.9762H161.837V67.8742H168.907V68.7562H160.759V64.9762ZM180.807 56.7582V69.0502H179.743V62.5962H177.069V61.7002H179.743V56.7582H180.807ZM170.783 65.8302C171.371 65.5502 171.898 65.1489 172.365 64.6262C172.841 64.0942 173.214 63.4922 173.485 62.8202C173.756 62.1389 173.891 61.4482 173.891 60.7482V59.7682H171.105V58.9142H173.877V56.9962H174.941V58.9142H177.671V59.7682H174.941V60.7482C174.941 61.4202 175.076 62.0782 175.347 62.7222C175.627 63.3662 176.005 63.9449 176.481 64.4582C176.966 64.9622 177.508 65.3496 178.105 65.6202L177.517 66.4462C176.817 66.1196 176.192 65.6389 175.641 65.0042C175.1 64.3602 174.694 63.6322 174.423 62.8202C174.162 63.6789 173.76 64.4442 173.219 65.1162C172.687 65.7882 172.071 66.3016 171.371 66.6562L170.783 65.8302ZM192.987 56.7582V69.0502H191.937V56.7582H192.987ZM183.663 57.9062H189.305V62.2742H184.755V65.1862C185.885 65.1862 186.916 65.1582 187.849 65.1022C188.783 65.0369 189.753 64.9156 190.761 64.7382L190.873 65.6202C189.828 65.7882 188.82 65.9049 187.849 65.9702C186.888 66.0356 185.838 66.0682 184.699 66.0682H183.691V61.3922H188.241V58.8022H183.663V57.9062Z" fill="#212121"/>
<path d="M36.6667 107V125C41.6667 125 45.6667 121 45.6667 116C45.6667 111 41.6667 107 36.6667 107Z" fill="#212121"/>
<path d="M30.6667 119C31.219 119 31.6667 118.553 31.6667 118C31.6667 117.448 31.219 117 30.6667 117C30.1145 117 29.6667 117.448 29.6667 118C29.6667 118.553 30.1145 119 30.6667 119Z" fill="#212121"/>
<path d="M30.6667 123C31.219 123 31.6667 122.553 31.6667 122C31.6667 121.448 31.219 121 30.6667 121C30.1145 121 29.6667 121.448 29.6667 122C29.6667 122.553 30.1145 123 30.6667 123Z" fill="#212121"/>
<path d="M30.6667 115C31.219 115 31.6667 114.553 31.6667 114C31.6667 113.448 31.219 113 30.6667 113C30.1145 113 29.6667 113.448 29.6667 114C29.6667 114.553 30.1145 115 30.6667 115Z" fill="#212121"/>
<path d="M27.6667 114.5C27.9429 114.5 28.1667 114.276 28.1667 114C28.1667 113.724 27.9429 113.5 27.6667 113.5C27.3906 113.5 27.1667 113.724 27.1667 114C27.1667 114.276 27.3906 114.5 27.6667 114.5Z" fill="#212121"/>
<path d="M30.6667 111C31.219 111 31.6667 110.553 31.6667 110C31.6667 109.448 31.219 109 30.6667 109C30.1145 109 29.6667 109.448 29.6667 110C29.6667 110.553 30.1145 111 30.6667 111Z" fill="#212121"/>
<path d="M27.6667 118.5C27.9429 118.5 28.1667 118.276 28.1667 118C28.1667 117.724 27.9429 117.5 27.6667 117.5C27.3906 117.5 27.1667 117.724 27.1667 118C27.1667 118.276 27.3906 118.5 27.6667 118.5Z" fill="#212121"/>
<path d="M34.6667 125.5C34.9429 125.5 35.1667 125.276 35.1667 125C35.1667 124.724 34.9429 124.5 34.6667 124.5C34.3906 124.5 34.1667 124.724 34.1667 125C34.1667 125.276 34.3906 125.5 34.6667 125.5Z" fill="#212121"/>
<path d="M34.6667 107.5C34.9429 107.5 35.1667 107.276 35.1667 107C35.1667 106.724 34.9429 106.5 34.6667 106.5C34.3906 106.5 34.1667 106.724 34.1667 107C34.1667 107.276 34.3906 107.5 34.6667 107.5Z" fill="#212121"/>
<path d="M34.6667 111C35.219 111 35.6667 110.553 35.6667 110C35.6667 109.448 35.219 109 34.6667 109C34.1145 109 33.6667 109.448 33.6667 110C33.6667 110.553 34.1145 111 34.6667 111Z" fill="#212121"/>
<path d="M34.6667 119.5C35.4952 119.5 36.1667 118.829 36.1667 118C36.1667 117.172 35.4952 116.5 34.6667 116.5C33.8383 116.5 33.1667 117.172 33.1667 118C33.1667 118.829 33.8383 119.5 34.6667 119.5Z" fill="#212121"/>
<path d="M34.6667 115.5C35.4952 115.5 36.1667 114.829 36.1667 114C36.1667 113.172 35.4952 112.5 34.6667 112.5C33.8383 112.5 33.1667 113.172 33.1667 114C33.1667 114.829 33.8383 115.5 34.6667 115.5Z" fill="#212121"/>
<path d="M34.6667 123C35.219 123 35.6667 122.553 35.6667 122C35.6667 121.448 35.219 121 34.6667 121C34.1145 121 33.6667 121.448 33.6667 122C33.6667 122.553 34.1145 123 34.6667 123Z" fill="#212121"/>
<path d="M65.6067 103.412V113.852H64.8747V103.412H65.6067ZM57.2667 111.128C58.3307 111.128 59.3427 111.112 60.3027 111.08V109.844C59.6627 109.788 59.1507 109.592 58.7667 109.256C58.3827 108.912 58.1907 108.472 58.1907 107.936C58.1907 107.36 58.4147 106.896 58.8627 106.544C59.3187 106.192 59.9147 106.016 60.6507 106.016C61.3947 106.016 61.9907 106.192 62.4387 106.544C62.8947 106.888 63.1227 107.352 63.1227 107.936C63.1227 108.464 62.9347 108.896 62.5587 109.232C62.1827 109.568 61.6787 109.768 61.0467 109.832V111.044C62.1347 111.004 63.1707 110.92 64.1547 110.792L64.2147 111.344C63.1747 111.512 62.0827 111.624 60.9387 111.68C59.8027 111.736 58.6107 111.764 57.3627 111.764L57.2667 111.128ZM57.4827 104.744H60.3027V103.4H61.0347V104.744H63.8427V105.356H57.4827V104.744ZM58.8987 107.936C58.8987 108.336 59.0587 108.66 59.3787 108.908C59.7067 109.148 60.1307 109.268 60.6507 109.268C61.1787 109.268 61.6067 109.144 61.9347 108.896C62.2627 108.648 62.4267 108.328 62.4267 107.936C62.4267 107.544 62.2627 107.224 61.9347 106.976C61.6067 106.728 61.1787 106.604 60.6507 106.604C60.1307 106.604 59.7067 106.728 59.3787 106.976C59.0587 107.224 58.8987 107.544 58.8987 107.936ZM70.695 104.06V105.524C70.695 106.132 70.895 106.712 71.295 107.264C71.695 107.808 72.219 108.208 72.867 108.464L72.471 109.04C71.975 108.824 71.543 108.528 71.175 108.152C70.807 107.768 70.527 107.332 70.335 106.844C70.143 107.372 69.855 107.856 69.471 108.296C69.095 108.736 68.655 109.072 68.151 109.304L67.743 108.716C68.175 108.524 68.559 108.252 68.895 107.9C69.239 107.548 69.503 107.164 69.687 106.748C69.879 106.324 69.975 105.916 69.975 105.524V104.06H70.695ZM69.507 110.324H76.419V113.852H75.699V110.948H69.507V110.324ZM73.455 103.616H74.175V106.208H75.723V103.424H76.419V109.724H75.723V106.82H74.175V109.664H73.455V103.616ZM82.5153 111.836V109.22H83.2353V111.836H87.6033V112.46H78.1593V111.836H82.5153ZM78.6513 108.956C79.2033 108.852 79.7793 108.632 80.3793 108.296C80.9793 107.952 81.4833 107.532 81.8913 107.036C82.2993 106.54 82.5033 106.02 82.5033 105.476V105.056H78.9393V104.432H86.8113V105.056H83.2473V105.476C83.2473 106.02 83.4513 106.54 83.8593 107.036C84.2673 107.532 84.7753 107.948 85.3833 108.284C85.9913 108.612 86.5753 108.824 87.1353 108.92L86.8233 109.508C86.3113 109.396 85.7913 109.208 85.2633 108.944C84.7433 108.68 84.2673 108.352 83.8353 107.96C83.4113 107.56 83.0953 107.12 82.8873 106.64C82.6793 107.12 82.3593 107.564 81.9273 107.972C81.5033 108.372 81.0273 108.708 80.4993 108.98C79.9793 109.252 79.4673 109.444 78.9633 109.556L78.6513 108.956ZM65.7027 118.412V128.852H64.9707V123.296H62.5707V122.66H64.9707V118.412H65.7027ZM57.2547 126.224C57.7427 125.984 58.1907 125.64 58.5987 125.192C59.0147 124.736 59.3427 124.216 59.5827 123.632C59.8307 123.048 59.9547 122.452 59.9547 121.844V120.872H57.5067V120.272H59.9427V118.592H60.6747V120.272H63.0747V120.872H60.6747V121.844C60.6747 122.428 60.7987 123 61.0467 123.56C61.2947 124.112 61.6267 124.604 62.0427 125.036C62.4667 125.468 62.9267 125.8 63.4227 126.032L63.0027 126.608C62.3947 126.312 61.8507 125.884 61.3707 125.324C60.8907 124.756 60.5387 124.12 60.3147 123.416C60.0987 124.16 59.7547 124.832 59.2827 125.432C58.8107 126.032 58.2747 126.488 57.6747 126.8L57.2547 126.224ZM76.155 118.412V128.852H75.435V118.412H76.155ZM68.271 119.408H73.047V123.02H69.027V125.672H69.135C70.103 125.672 70.991 125.648 71.799 125.6C72.615 125.544 73.467 125.44 74.355 125.288L74.427 125.912C73.507 126.056 72.631 126.156 71.799 126.212C70.975 126.268 70.087 126.296 69.135 126.296H68.295V122.408H72.315V120.044H68.271V119.408Z" fill="#212121"/>
<rect x="17.1667" y="90.5002" width="89" height="51" rx="1.5" stroke="#BDBDBD"/>
<path d="M127.267 123.4C130.267 126.4 134.967 126.8 138.367 124.6L136.867 123.1C134.167 124.5 130.867 124.1 128.567 121.9C125.867 119.2 125.867 114.7 128.567 112C129.967 110.6 131.767 110 133.567 110V113L137.567 109L133.567 105V108C131.367 108 129.067 108.9 127.267 110.6C123.767 114.1 123.767 119.9 127.267 123.4ZM133.667 117L139.667 123L145.667 117L139.667 111L133.667 117Z" fill="#212121"/>
<path d="M163.667 103.412V113.852H162.923V103.412H163.667ZM155.603 107.84C155.603 107.128 155.715 106.5 155.939 105.956C156.163 105.412 156.471 104.992 156.863 104.696C157.263 104.4 157.715 104.252 158.219 104.252C158.723 104.252 159.171 104.4 159.563 104.696C159.963 104.992 160.275 105.412 160.499 105.956C160.723 106.5 160.835 107.128 160.835 107.84C160.835 108.56 160.723 109.196 160.499 109.748C160.275 110.292 159.963 110.712 159.563 111.008C159.171 111.304 158.723 111.452 158.219 111.452C157.715 111.452 157.263 111.304 156.863 111.008C156.471 110.712 156.163 110.292 155.939 109.748C155.715 109.196 155.603 108.56 155.603 107.84ZM156.323 107.84C156.323 108.424 156.403 108.94 156.563 109.388C156.723 109.836 156.947 110.184 157.235 110.432C157.523 110.68 157.851 110.804 158.219 110.804C158.587 110.804 158.915 110.68 159.203 110.432C159.491 110.184 159.715 109.836 159.875 109.388C160.043 108.932 160.127 108.416 160.127 107.84C160.127 107.264 160.043 106.756 159.875 106.316C159.715 105.868 159.491 105.52 159.203 105.272C158.915 105.024 158.587 104.9 158.219 104.9C157.851 104.9 157.523 105.024 157.235 105.272C156.947 105.52 156.723 105.868 156.563 106.316C156.403 106.756 156.323 107.264 156.323 107.84ZM170.999 104.468V111.164H166.295V104.468H170.999ZM170.291 110.564V105.08H167.015V110.564H170.291ZM173.411 103.412H174.143V113.852H173.411V103.412ZM182.327 104.504V105.14H179.771V106.748C179.771 107.324 179.907 107.9 180.179 108.476C180.451 109.044 180.807 109.552 181.247 110C181.687 110.44 182.151 110.768 182.639 110.984L182.207 111.572C181.599 111.276 181.039 110.832 180.527 110.24C180.015 109.64 179.643 108.976 179.411 108.248C179.179 109.024 178.807 109.736 178.295 110.384C177.791 111.032 177.239 111.516 176.639 111.836L176.207 111.236C176.679 111.004 177.131 110.648 177.563 110.168C178.003 109.68 178.359 109.136 178.631 108.536C178.903 107.928 179.039 107.332 179.039 106.748V105.14H176.507V104.504H182.327ZM183.911 103.412H184.643V113.852H183.911V103.412ZM163.691 118.412V128.852H162.959V118.412H163.691ZM155.363 126.224C156.771 125.552 157.855 124.7 158.615 123.668C159.383 122.628 159.811 121.464 159.899 120.176H155.807V119.552H160.643C160.643 121.08 160.239 122.472 159.431 123.728C158.631 124.984 157.407 126.016 155.759 126.824L155.363 126.224ZM170.375 118.568C171.519 118.568 172.407 118.724 173.039 119.036C173.679 119.348 173.999 119.788 173.999 120.356C173.999 120.94 173.679 121.392 173.039 121.712C172.407 122.032 171.519 122.192 170.375 122.192C169.231 122.192 168.339 122.032 167.699 121.712C167.067 121.392 166.751 120.94 166.751 120.356C166.751 119.78 167.067 119.34 167.699 119.036C168.339 118.724 169.231 118.568 170.375 118.568ZM165.671 122.96H175.091V123.572H170.723V124.652H173.855V126.872H167.579V128.12H174.191V128.708H166.871V126.308H173.135V125.216H166.835V124.652H170.003V123.572H165.671V122.96ZM167.495 120.356C167.495 120.748 167.751 121.056 168.263 121.28C168.775 121.496 169.479 121.604 170.375 121.604C171.271 121.604 171.971 121.496 172.475 121.28C172.987 121.056 173.243 120.748 173.243 120.356C173.243 119.98 172.987 119.68 172.475 119.456C171.963 119.232 171.263 119.12 170.375 119.12C169.487 119.12 168.783 119.232 168.263 119.456C167.751 119.68 167.495 119.98 167.495 120.356ZM178.919 119.252C179.391 119.252 179.811 119.384 180.179 119.648C180.555 119.912 180.855 120.288 181.079 120.776C181.311 121.264 181.443 121.832 181.475 122.48H183.959V118.412H184.679V128.852H183.959V123.092H181.487C181.463 123.764 181.335 124.356 181.103 124.868C180.879 125.372 180.579 125.764 180.203 126.044C179.827 126.316 179.399 126.452 178.919 126.452C178.423 126.452 177.979 126.304 177.587 126.008C177.203 125.712 176.903 125.292 176.687 124.748C176.471 124.196 176.363 123.56 176.363 122.84C176.363 122.12 176.471 121.492 176.687 120.956C176.903 120.412 177.203 119.992 177.587 119.696C177.979 119.4 178.423 119.252 178.919 119.252ZM177.059 122.84C177.059 123.424 177.135 123.94 177.287 124.388C177.447 124.836 177.667 125.184 177.947 125.432C178.235 125.68 178.559 125.804 178.919 125.804C179.279 125.804 179.599 125.68 179.879 125.432C180.159 125.184 180.375 124.836 180.527 124.388C180.687 123.94 180.767 123.424 180.767 122.84C180.767 122.264 180.687 121.756 180.527 121.316C180.375 120.868 180.159 120.52 179.879 120.272C179.599 120.024 179.279 119.9 178.919 119.9C178.559 119.9 178.235 120.024 177.947 120.272C177.667 120.52 177.447 120.868 177.287 121.316C177.135 121.756 177.059 122.264 177.059 122.84ZM192.756 119.192V119.816H190.284V120.296C190.284 120.776 190.404 121.232 190.644 121.664C190.884 122.096 191.208 122.476 191.616 122.804C192.024 123.124 192.48 123.368 192.984 123.536L192.612 124.112C191.996 123.896 191.448 123.576 190.968 123.152C190.496 122.72 190.148 122.22 189.924 121.652C189.708 122.26 189.36 122.8 188.88 123.272C188.4 123.736 187.848 124.088 187.224 124.328L186.84 123.728C187.344 123.552 187.8 123.292 188.208 122.948C188.616 122.604 188.94 122.204 189.18 121.748C189.42 121.284 189.54 120.8 189.54 120.296V119.816H187.032V119.192H192.756ZM188.496 125.108H195.144V128.684H188.496V125.108ZM194.436 128.084V125.696H189.216V128.084H194.436ZM194.412 118.424H195.144V124.52H194.412V118.424ZM208.421 118.412V128.852H207.689V123.296H205.289V122.66H207.689V118.412H208.421ZM199.973 126.224C200.461 125.984 200.909 125.64 201.317 125.192C201.733 124.736 202.061 124.216 202.301 123.632C202.549 123.048 202.673 122.452 202.673 121.844V120.872H200.225V120.272H202.661V118.592H203.393V120.272H205.793V120.872H203.393V121.844C203.393 122.428 203.517 123 203.765 123.56C204.013 124.112 204.345 124.604 204.761 125.036C205.185 125.468 205.645 125.8 206.141 126.032L205.721 126.608C205.113 126.312 204.569 125.884 204.089 125.324C203.609 124.756 203.257 124.12 203.033 123.416C202.817 124.16 202.473 124.832 202.001 125.432C201.529 126.032 200.993 126.488 200.393 126.8L199.973 126.224ZM218.874 118.412V128.852H218.154V118.412H218.874ZM210.99 119.408H215.766V123.02H211.746V125.672H211.854C212.822 125.672 213.71 125.648 214.518 125.6C215.334 125.544 216.186 125.44 217.074 125.288L217.146 125.912C216.226 126.056 215.35 126.156 214.518 126.212C213.694 126.268 212.806 126.296 211.854 126.296H211.014V122.408H215.034V120.044H210.99V119.408Z" fill="#212121"/>
<rect x="115.167" y="90.5002" width="113" height="51" rx="1.5" stroke="#BDBDBD"/>
<path d="M139.667 166H142.667C143.767 166 144.667 166.9 144.667 168V170H142.667V168H139.667V166ZM126.667 170V168H129.667V166H126.667C125.567 166 124.667 166.9 124.667 168V170H126.667ZM142.667 178V180H139.667V182H142.667C143.767 182 144.667 181.1 144.667 180V178H142.667ZM129.667 180H126.667V178H124.667V180C124.667 181.1 125.567 182 126.667 182H129.667V180ZM140.667 170H128.667V178H140.667V170Z" fill="#212121"/>
<path d="M163.667 161.412V171.852H162.923V161.412H163.667ZM155.603 165.84C155.603 165.128 155.715 164.5 155.939 163.956C156.163 163.412 156.471 162.992 156.863 162.696C157.263 162.4 157.715 162.252 158.219 162.252C158.723 162.252 159.171 162.4 159.563 162.696C159.963 162.992 160.275 163.412 160.499 163.956C160.723 164.5 160.835 165.128 160.835 165.84C160.835 166.56 160.723 167.196 160.499 167.748C160.275 168.292 159.963 168.712 159.563 169.008C159.171 169.304 158.723 169.452 158.219 169.452C157.715 169.452 157.263 169.304 156.863 169.008C156.471 168.712 156.163 168.292 155.939 167.748C155.715 167.196 155.603 166.56 155.603 165.84ZM156.323 165.84C156.323 166.424 156.403 166.94 156.563 167.388C156.723 167.836 156.947 168.184 157.235 168.432C157.523 168.68 157.851 168.804 158.219 168.804C158.587 168.804 158.915 168.68 159.203 168.432C159.491 168.184 159.715 167.836 159.875 167.388C160.043 166.932 160.127 166.416 160.127 165.84C160.127 165.264 160.043 164.756 159.875 164.316C159.715 163.868 159.491 163.52 159.203 163.272C158.915 163.024 158.587 162.9 158.219 162.9C157.851 162.9 157.523 163.024 157.235 163.272C156.947 163.52 156.723 163.868 156.563 164.316C156.403 164.756 156.323 165.264 156.323 165.84ZM170.999 162.468V169.164H166.295V162.468H170.999ZM170.291 168.564V163.08H167.015V168.564H170.291ZM173.411 161.412H174.143V171.852H173.411V161.412ZM182.327 162.504V163.14H179.771V164.748C179.771 165.324 179.907 165.9 180.179 166.476C180.451 167.044 180.807 167.552 181.247 168C181.687 168.44 182.151 168.768 182.639 168.984L182.207 169.572C181.599 169.276 181.039 168.832 180.527 168.24C180.015 167.64 179.643 166.976 179.411 166.248C179.179 167.024 178.807 167.736 178.295 168.384C177.791 169.032 177.239 169.516 176.639 169.836L176.207 169.236C176.679 169.004 177.131 168.648 177.563 168.168C178.003 167.68 178.359 167.136 178.631 166.536C178.903 165.928 179.039 165.332 179.039 164.748V163.14H176.507V162.504H182.327ZM183.911 161.412H184.643V171.852H183.911V161.412ZM163.355 177.54V178.848C163.355 179.848 163.331 180.704 163.283 181.416C163.235 182.128 163.119 182.948 162.935 183.876L162.203 183.804C162.427 182.844 162.563 181.912 162.611 181.008L156.179 181.368L156.059 180.732L162.635 180.432C162.651 180.072 162.659 179.544 162.659 178.848V178.152H156.335V177.54H163.355ZM155.183 184.692H164.603V185.304H155.183V184.692ZM174.179 176.412V186.852H173.447V176.412H174.179ZM165.851 184.224C167.259 183.552 168.343 182.7 169.103 181.668C169.871 180.628 170.299 179.464 170.387 178.176H166.295V177.552H171.131C171.131 179.08 170.727 180.472 169.919 181.728C169.119 182.984 167.895 184.016 166.247 184.824L165.851 184.224ZM186.713 179.184V176.412H187.445V182.64H186.713V179.808H184.457V179.184H186.713ZM179.009 181.92C179.505 181.736 179.957 181.464 180.365 181.104C180.773 180.744 181.093 180.328 181.325 179.856C181.565 179.384 181.685 178.896 181.685 178.392V177.852H179.261V177.228H184.817V177.852H182.417V178.38C182.417 178.836 182.529 179.28 182.753 179.712C182.985 180.136 183.297 180.516 183.689 180.852C184.089 181.18 184.533 181.436 185.021 181.62L184.649 182.208C184.065 181.984 183.545 181.656 183.089 181.224C182.641 180.792 182.305 180.3 182.081 179.748C181.865 180.38 181.517 180.94 181.037 181.428C180.565 181.908 180.017 182.268 179.393 182.508L179.009 181.92ZM180.629 184.908C180.629 184.308 180.933 183.84 181.541 183.504C182.157 183.168 182.997 183 184.061 183C185.133 183 185.973 183.168 186.581 183.504C187.189 183.84 187.493 184.308 187.493 184.908C187.493 185.508 187.189 185.976 186.581 186.312C185.973 186.656 185.133 186.828 184.061 186.828C182.997 186.828 182.157 186.656 181.541 186.312C180.933 185.976 180.629 185.508 180.629 184.908ZM181.337 184.908C181.337 185.316 181.581 185.64 182.069 185.88C182.565 186.12 183.229 186.24 184.061 186.24C184.893 186.24 185.553 186.12 186.041 185.88C186.529 185.64 186.773 185.316 186.773 184.908C186.773 184.5 186.529 184.18 186.041 183.948C185.553 183.708 184.893 183.588 184.061 183.588C183.229 183.588 182.565 183.708 182.069 183.948C181.581 184.18 181.337 184.5 181.337 184.908ZM197.501 177.12V177.936C197.501 178.616 197.481 179.236 197.441 179.796C197.409 180.348 197.325 180.984 197.189 181.704H198.833V182.316H196.241V186.828H195.509V182.316H192.713V186.828H191.969V182.316H189.413V181.704H196.445C196.597 180.984 196.689 180.344 196.721 179.784C196.761 179.224 196.781 178.608 196.781 177.936V177.732H190.649V177.12H197.501ZM207.833 176.412V180.924H209.585V181.548H207.833V186.852H207.101V176.412H207.833ZM199.769 184.128C201.033 184.128 202.017 184.116 202.721 184.092V182.844C202.097 182.78 201.597 182.58 201.221 182.244C200.853 181.908 200.669 181.472 200.669 180.936C200.669 180.36 200.889 179.896 201.329 179.544C201.777 179.192 202.361 179.016 203.081 179.016C203.809 179.016 204.393 179.192 204.833 179.544C205.281 179.888 205.505 180.352 205.505 180.936C205.505 181.464 205.321 181.9 204.953 182.244C204.585 182.58 204.085 182.78 203.453 182.844V184.056C204.549 184 205.537 183.912 206.417 183.792L206.489 184.344C205.481 184.512 204.433 184.624 203.345 184.68C202.265 184.736 201.117 184.764 199.901 184.764L199.769 184.128ZM199.949 177.72H202.721V176.412H203.453V177.72H206.225V178.332H199.949V177.72ZM201.353 180.936C201.353 181.336 201.513 181.66 201.833 181.908C202.153 182.148 202.569 182.268 203.081 182.268C203.593 182.268 204.009 182.148 204.329 181.908C204.649 181.66 204.809 181.336 204.809 180.936C204.809 180.544 204.649 180.224 204.329 179.976C204.009 179.728 203.593 179.604 203.081 179.604C202.569 179.604 202.153 179.728 201.833 179.976C201.513 180.224 201.353 180.544 201.353 180.936Z" fill="#212121"/>
<rect x="115.167" y="148.5" width="113" height="51" rx="1.5" stroke="#BDBDBD"/>
<g clip-path="url(#clip0_267_359)">
<path d="M32.1667 183.5C28.8667 181.9 26.5667 178.8 26.1667 175H24.6667C25.1667 181.2 30.3667 186 36.5667 186C36.7667 186 36.9667 186 37.2667 186L33.4667 182.2C33.4667 182.1 32.1667 183.5 32.1667 183.5ZM36.7667 162C36.5667 162 36.3667 162 36.0667 162L39.8667 165.8L41.1667 164.5C44.4667 166.1 46.7667 169.2 47.1667 173H48.6667C48.1667 166.8 42.9667 162 36.7667 162ZM40.6667 176H42.6667V170C42.6667 168.9 41.7667 168 40.6667 168H34.6667V170H40.6667V176ZM32.6667 178V166H30.6667V168H28.6667V170H30.6667V178C30.6667 179.1 31.5667 180 32.6667 180H40.6667V182H42.6667V180H44.6667V178H32.6667Z" fill="#212121"/>
</g>
<path d="M65.6667 161.412V171.852H64.9227V161.412H65.6667ZM57.6027 165.84C57.6027 165.128 57.7147 164.5 57.9387 163.956C58.1627 163.412 58.4707 162.992 58.8627 162.696C59.2627 162.4 59.7147 162.252 60.2187 162.252C60.7227 162.252 61.1707 162.4 61.5627 162.696C61.9627 162.992 62.2747 163.412 62.4987 163.956C62.7227 164.5 62.8347 165.128 62.8347 165.84C62.8347 166.56 62.7227 167.196 62.4987 167.748C62.2747 168.292 61.9627 168.712 61.5627 169.008C61.1707 169.304 60.7227 169.452 60.2187 169.452C59.7147 169.452 59.2627 169.304 58.8627 169.008C58.4707 168.712 58.1627 168.292 57.9387 167.748C57.7147 167.196 57.6027 166.56 57.6027 165.84ZM58.3227 165.84C58.3227 166.424 58.4027 166.94 58.5627 167.388C58.7227 167.836 58.9467 168.184 59.2347 168.432C59.5227 168.68 59.8507 168.804 60.2187 168.804C60.5867 168.804 60.9147 168.68 61.2027 168.432C61.4907 168.184 61.7147 167.836 61.8747 167.388C62.0427 166.932 62.1267 166.416 62.1267 165.84C62.1267 165.264 62.0427 164.756 61.8747 164.316C61.7147 163.868 61.4907 163.52 61.2027 163.272C60.9147 163.024 60.5867 162.9 60.2187 162.9C59.8507 162.9 59.5227 163.024 59.2347 163.272C58.9467 163.52 58.7227 163.868 58.5627 164.316C58.4027 164.756 58.3227 165.264 58.3227 165.84ZM72.999 162.468V169.164H68.295V162.468H72.999ZM72.291 168.564V163.08H69.015V168.564H72.291ZM75.411 161.412H76.143V171.852H75.411V161.412ZM84.3273 162.504V163.14H81.7713V164.748C81.7713 165.324 81.9073 165.9 82.1793 166.476C82.4513 167.044 82.8073 167.552 83.2473 168C83.6873 168.44 84.1513 168.768 84.6393 168.984L84.2073 169.572C83.5993 169.276 83.0393 168.832 82.5273 168.24C82.0153 167.64 81.6433 166.976 81.4113 166.248C81.1793 167.024 80.8073 167.736 80.2953 168.384C79.7913 169.032 79.2393 169.516 78.6393 169.836L78.2073 169.236C78.6793 169.004 79.1313 168.648 79.5633 168.168C80.0033 167.68 80.3593 167.136 80.6313 166.536C80.9033 165.928 81.0393 165.332 81.0393 164.748V163.14H78.5073V162.504H84.3273ZM85.9113 161.412H86.6433V171.852H85.9113V161.412ZM65.6067 176.412V186.852H64.8747V176.412H65.6067ZM57.2667 184.128C58.3307 184.128 59.3427 184.112 60.3027 184.08V182.844C59.6627 182.788 59.1507 182.592 58.7667 182.256C58.3827 181.912 58.1907 181.472 58.1907 180.936C58.1907 180.36 58.4147 179.896 58.8627 179.544C59.3187 179.192 59.9147 179.016 60.6507 179.016C61.3947 179.016 61.9907 179.192 62.4387 179.544C62.8947 179.888 63.1227 180.352 63.1227 180.936C63.1227 181.464 62.9347 181.896 62.5587 182.232C62.1827 182.568 61.6787 182.768 61.0467 182.832V184.044C62.1347 184.004 63.1707 183.92 64.1547 183.792L64.2147 184.344C63.1747 184.512 62.0827 184.624 60.9387 184.68C59.8027 184.736 58.6107 184.764 57.3627 184.764L57.2667 184.128ZM57.4827 177.744H60.3027V176.4H61.0347V177.744H63.8427V178.356H57.4827V177.744ZM58.8987 180.936C58.8987 181.336 59.0587 181.66 59.3787 181.908C59.7067 182.148 60.1307 182.268 60.6507 182.268C61.1787 182.268 61.6067 182.144 61.9347 181.896C62.2627 181.648 62.4267 181.328 62.4267 180.936C62.4267 180.544 62.2627 180.224 61.9347 179.976C61.6067 179.728 61.1787 179.604 60.6507 179.604C60.1307 179.604 59.7067 179.728 59.3787 179.976C59.0587 180.224 58.8987 180.544 58.8987 180.936ZM75.447 179.376V176.424H76.191V184.08H75.447V179.988H73.179V179.376H75.447ZM67.743 182.088C68.239 181.904 68.691 181.636 69.099 181.284C69.507 180.932 69.831 180.524 70.071 180.06C70.311 179.596 70.431 179.108 70.431 178.596V177.936H67.995V177.336H73.563V177.936H71.163V178.596C71.163 179.052 71.275 179.496 71.499 179.928C71.731 180.36 72.043 180.744 72.435 181.08C72.835 181.416 73.279 181.668 73.767 181.836L73.383 182.424C72.799 182.2 72.279 181.872 71.823 181.44C71.375 181 71.039 180.5 70.815 179.94C70.599 180.564 70.251 181.12 69.771 181.608C69.299 182.088 68.755 182.448 68.139 182.688L67.743 182.088ZM69.627 183.396H70.371V185.976H76.503V186.6H69.627V183.396ZM86.6793 176.412V186.852H85.9473V181.296H83.5473V180.66H85.9473V176.412H86.6793ZM78.2313 184.224C78.7193 183.984 79.1673 183.64 79.5753 183.192C79.9913 182.736 80.3193 182.216 80.5593 181.632C80.8073 181.048 80.9313 180.452 80.9313 179.844V178.872H78.4833V178.272H80.9193V176.592H81.6513V178.272H84.0513V178.872H81.6513V179.844C81.6513 180.428 81.7753 181 82.0233 181.56C82.2713 182.112 82.6033 182.604 83.0193 183.036C83.4433 183.468 83.9033 183.8 84.3993 184.032L83.9793 184.608C83.3713 184.312 82.8273 183.884 82.3473 183.324C81.8673 182.756 81.5153 182.12 81.2913 181.416C81.0753 182.16 80.7313 182.832 80.2593 183.432C79.7873 184.032 79.2513 184.488 78.6513 184.8L78.2313 184.224ZM97.1316 176.412V186.852H96.4116V176.412H97.1316ZM89.2476 177.408H94.0236V181.02H90.0036V183.672H90.1116C91.0796 183.672 91.9676 183.648 92.7756 183.6C93.5916 183.544 94.4436 183.44 95.3316 183.288L95.4036 183.912C94.4836 184.056 93.6076 184.156 92.7756 184.212C91.9516 184.268 91.0636 184.296 90.1116 184.296H89.2716V180.408H93.2916V178.044H89.2476V177.408Z" fill="#212121"/>
<rect x="17.1667" y="148.5" width="89" height="51" rx="1.5" stroke="#BDBDBD"/>
<rect x="0.5" y="0.500244" width="244" height="215" rx="1.5" stroke="#BDBDBD"/>
<defs>
<clipPath id="clip0_267_359">
<rect width="24" height="24" fill="white" transform="translate(24.6667 162)"/>
</clipPath>
</defs>
</svg>
