<svg width="181" height="216" viewBox="0 0 181 216" fill="none" xmlns="http://www.w3.org/2000/svg">
<rect x="0.5" y="0.500244" width="180" height="215" rx="1.5" fill="white"/>
<path d="M43.8192 20.5442V19.0242H45.3072V20.5442H48.7472V21.7282H40.4112V20.5442H43.8192ZM41.1632 24.9602C41.1632 24.4482 41.3072 24.0002 41.5952 23.6162C41.8832 23.2216 42.2832 22.9176 42.7952 22.7042C43.3072 22.4909 43.8992 22.3842 44.5712 22.3842C45.2432 22.3842 45.8352 22.4909 46.3472 22.7042C46.8592 22.9176 47.2592 23.2216 47.5472 23.6162C47.8352 24.0002 47.9792 24.4482 47.9792 24.9602C47.9792 25.7282 47.6645 26.3416 47.0352 26.8002C46.4059 27.2589 45.5845 27.4882 44.5712 27.4882C43.5579 27.4882 42.7365 27.2589 42.1072 26.8002C41.4779 26.3416 41.1632 25.7282 41.1632 24.9602ZM42.1392 28.6722H51.3712V33.2482H49.8992V29.8562H42.1392V28.6722ZM42.5712 24.9602C42.5712 25.3869 42.7525 25.7282 43.1152 25.9842C43.4779 26.2402 43.9632 26.3682 44.5712 26.3682C45.1685 26.3682 45.6485 26.2402 46.0112 25.9842C46.3739 25.7282 46.5552 25.3869 46.5552 24.9602C46.5552 24.5229 46.3739 24.1762 46.0112 23.9202C45.6485 23.6642 45.1685 23.5362 44.5712 23.5362C43.9632 23.5362 43.4779 23.6642 43.1152 23.9202C42.7525 24.1656 42.5712 24.5122 42.5712 24.9602ZM49.8992 19.1202H51.3712V22.9442H53.3872V24.1762H51.3712V27.9522H49.8992V19.1202ZM56.9236 27.5842V29.1042H63.5316V27.5842H64.9876V33.0402H55.4676V27.5842H56.9236ZM53.8836 25.4882H66.6516V26.6562H53.8836V25.4882ZM54.5716 23.4082C55.4676 23.3016 56.2942 23.0722 57.0516 22.7202C57.8089 22.3682 58.4062 21.9416 58.8436 21.4402C59.2916 20.9282 59.5156 20.4002 59.5156 19.8562V19.2642H61.0036V19.8562C61.0036 20.4002 61.2276 20.9229 61.6756 21.4242C62.1236 21.9256 62.7209 22.3576 63.4676 22.7202C64.2249 23.0722 65.0462 23.3016 65.9316 23.4082L65.4036 24.5762C64.2729 24.4162 63.2436 24.0802 62.3156 23.5682C61.3982 23.0456 60.7156 22.4109 60.2676 21.6642C59.8302 22.4109 59.1476 23.0456 58.2196 23.5682C57.3022 24.0802 56.2729 24.4162 55.1316 24.5762L54.5716 23.4082ZM63.5316 31.8722V30.2242H56.9236V31.8722H63.5316ZM82.6274 19.1042V33.2322H81.2194V19.1042H82.6274ZM71.1074 20.8002H76.4194V22.0002H72.5474V28.6722C73.5501 28.6616 74.3821 28.6296 75.0434 28.5762C75.7154 28.5229 76.3928 28.4216 77.0754 28.2722L77.1874 29.5042C76.4301 29.6642 75.6728 29.7709 74.9154 29.8242C74.1581 29.8776 73.1981 29.9042 72.0354 29.9042H71.1074V20.8002ZM75.4594 24.4322H78.3394V19.4402H79.7314V32.5282H78.3394V25.6642H75.4594V24.4322ZM95.6998 19.0882V33.2642H94.2118V19.0882H95.6998ZM84.5958 25.1202C84.5958 24.1282 84.7505 23.2589 85.0598 22.5122C85.3691 21.7656 85.7958 21.1896 86.3398 20.7842C86.8945 20.3789 87.5185 20.1762 88.2118 20.1762C88.9051 20.1762 89.5291 20.3789 90.0838 20.7842C90.6385 21.1896 91.0705 21.7656 91.3798 22.5122C91.6891 23.2589 91.8438 24.1282 91.8438 25.1202C91.8438 26.1122 91.6891 26.9816 91.3798 27.7282C91.0705 28.4749 90.6385 29.0562 90.0838 29.4722C89.5291 29.8776 88.9051 30.0802 88.2118 30.0802C87.5185 30.0802 86.8945 29.8776 86.3398 29.4722C85.7958 29.0669 85.3691 28.4909 85.0598 27.7442C84.7505 26.9869 84.5958 26.1122 84.5958 25.1202ZM86.0198 25.1202C86.0198 26.2402 86.2225 27.1309 86.6278 27.7922C87.0331 28.4429 87.5611 28.7682 88.2118 28.7682C88.8731 28.7682 89.4065 28.4429 89.8118 27.7922C90.2171 27.1309 90.4198 26.2402 90.4198 25.1202C90.4198 24.0109 90.2171 23.1309 89.8118 22.4802C89.4065 21.8296 88.8731 21.5042 88.2118 21.5042C87.5611 21.5042 87.0331 21.8296 86.6278 22.4802C86.2225 23.1309 86.0198 24.0109 86.0198 25.1202ZM109.284 19.0882V33.2642H107.812V25.5522H105.012V24.3362H107.812V19.0882H109.284ZM98.2762 20.3682H104.788V21.5682H99.7322V24.3362H104.212V25.5042H99.7322V28.7042C100.98 28.7042 102.042 28.6776 102.916 28.6242C103.802 28.5602 104.698 28.4482 105.604 28.2882L105.748 29.4882C104.788 29.6589 103.834 29.7709 102.884 29.8242C101.946 29.8776 100.772 29.9042 99.3642 29.9042H98.2762V20.3682ZM125.324 19.1202V23.3442H127.324V24.5442H125.324V28.6242H123.836V19.1202H125.324ZM114.204 27.0722C115.783 27.0722 117.009 27.0616 117.884 27.0402V26.0642C117.073 25.9789 116.439 25.7549 115.98 25.3922C115.521 25.0296 115.292 24.5709 115.292 24.0162C115.292 23.3762 115.591 22.8696 116.188 22.4962C116.796 22.1122 117.607 21.9202 118.62 21.9202C119.623 21.9202 120.423 22.1122 121.02 22.4962C121.628 22.8696 121.932 23.3762 121.932 24.0162C121.932 24.5709 121.703 25.0296 121.244 25.3922C120.785 25.7549 120.156 25.9789 119.356 26.0642V26.9762C120.785 26.9016 122.023 26.7949 123.068 26.6562L123.18 27.6962C121.857 27.9309 120.492 28.0802 119.084 28.1442C117.676 28.2082 116.113 28.2402 114.396 28.2402L114.204 27.0722ZM114.572 20.3202H117.884V18.9922H119.356V20.3202H122.652V21.4242H114.572V20.3202ZM115.964 29.2962H125.324V33.2482H123.836V30.4642H115.964V29.2962ZM116.684 24.0162C116.684 24.3576 116.855 24.6242 117.196 24.8162C117.548 25.0082 118.023 25.1042 118.62 25.1042C119.207 25.1042 119.671 25.0082 120.012 24.8162C120.364 24.6136 120.54 24.3469 120.54 24.0162C120.54 23.6642 120.364 23.3922 120.012 23.2002C119.671 23.0082 119.207 22.9122 118.62 22.9122C118.012 22.9122 117.537 23.0082 117.196 23.2002C116.855 23.3922 116.684 23.6642 116.684 24.0162ZM133.452 30.2722V27.3442H129.292V20.0802H130.764V22.5282H137.644V20.0802H139.116V27.3442H134.908V30.2722H140.604V31.4882H127.82V30.2722H133.452ZM137.644 26.1442V23.7282H130.764V26.1442H137.644Z" fill="#212121"/>
<rect x="16" y="52.0002" width="149" height="22" rx="2" fill="#F5F5F5"/>
<path d="M36.1265 63.0582V63.9262H31.1845V66.4322H30.1205V63.9262H25.0245V63.0582H36.1265ZM26.4525 65.2562H27.5025V67.8742H34.8945V68.7562H26.4525V65.2562ZM26.4665 57.3602H34.6845V61.6442H26.4665V57.3602ZM33.6345 60.7762V58.2002H27.5025V60.7762H33.6345ZM46.3048 60.9722V56.7582H47.3548V69.0502H46.3048V61.8402H43.4068V60.9722H46.3048ZM37.2888 65.5782C37.8768 65.2796 38.4135 64.8409 38.8988 64.2622C39.3842 63.6836 39.7668 63.0256 40.0468 62.2882C40.3362 61.5509 40.4808 60.8136 40.4808 60.0762V57.8362H41.5448V60.0762C41.5448 60.7949 41.6848 61.5089 41.9648 62.2182C42.2542 62.9276 42.6415 63.5622 43.1268 64.1222C43.6122 64.6729 44.1442 65.0836 44.7228 65.3542L44.0928 66.2082C43.4022 65.8536 42.7862 65.3309 42.2448 64.6402C41.7035 63.9402 41.2975 63.1516 41.0268 62.2742C40.7562 63.1982 40.3502 64.0289 39.8088 64.7662C39.2675 65.5036 38.6515 66.0589 37.9608 66.4322L37.2888 65.5782ZM63.8397 63.7582V64.6402H60.8997V69.0222H59.8217V64.6402H56.7137V69.0222H55.6217V64.6402H52.7377V63.7582H63.8397ZM53.9977 59.9362C53.9977 59.3949 54.1751 58.9236 54.5297 58.5222C54.8844 58.1209 55.3791 57.8129 56.0137 57.5982C56.6577 57.3836 57.4044 57.2762 58.2537 57.2762C59.1031 57.2762 59.8497 57.3836 60.4937 57.5982C61.1377 57.8129 61.6371 58.1209 61.9917 58.5222C62.3464 58.9236 62.5237 59.3949 62.5237 59.9362C62.5237 60.4682 62.3464 60.9349 61.9917 61.3362C61.6371 61.7376 61.1377 62.0502 60.4937 62.2742C59.8497 62.4889 59.1031 62.5962 58.2537 62.5962C57.4137 62.5962 56.6717 62.4889 56.0277 62.2742C55.3837 62.0502 54.8844 61.7376 54.5297 61.3362C54.1751 60.9349 53.9977 60.4682 53.9977 59.9362ZM55.0757 59.9362C55.0757 60.2909 55.2064 60.6036 55.4677 60.8742C55.7384 61.1449 56.1117 61.3549 56.5877 61.5042C57.0731 61.6536 57.6284 61.7282 58.2537 61.7282C58.8791 61.7282 59.4344 61.6536 59.9197 61.5042C60.4051 61.3549 60.7784 61.1449 61.0397 60.8742C61.3104 60.6036 61.4457 60.2909 61.4457 59.9362C61.4457 59.5722 61.3104 59.2549 61.0397 58.9842C60.7784 58.7042 60.4051 58.4896 59.9197 58.3402C59.4344 58.1909 58.8791 58.1162 58.2537 58.1162C57.6284 58.1162 57.0731 58.1909 56.5877 58.3402C56.1117 58.4896 55.7384 58.7042 55.4677 58.9842C55.2064 59.2549 55.0757 59.5722 55.0757 59.9362ZM73.9901 59.7402V56.7722H75.0541V64.6962H73.9901V62.9882H71.8621V62.1202H73.9901V60.6082H71.8761V59.7402H73.9901ZM65.0021 58.1442H67.9561V56.6602H69.0201V58.1442H71.8901V58.9982H65.0021V58.1442ZM65.7021 61.9102C65.7021 61.2382 65.9587 60.6969 66.4721 60.2862C66.9947 59.8662 67.6667 59.6562 68.4881 59.6562C69.3001 59.6562 69.9627 59.8662 70.4761 60.2862C70.9894 60.6969 71.2461 61.2382 71.2461 61.9102C71.2461 62.5916 70.9894 63.1422 70.4761 63.5622C69.9627 63.9822 69.3001 64.1922 68.4881 64.1922C67.9467 64.1922 67.4661 64.0989 67.0461 63.9122C66.6261 63.7162 66.2947 63.4456 66.0521 63.1002C65.8187 62.7549 65.7021 62.3582 65.7021 61.9102ZM66.7241 61.9102C66.7241 62.3489 66.8827 62.7036 67.2001 62.9742C67.5267 63.2449 67.9561 63.3802 68.4881 63.3802C69.0107 63.3802 69.4307 63.2449 69.7481 62.9742C70.0747 62.7036 70.2381 62.3489 70.2381 61.9102C70.2381 61.4809 70.0747 61.1356 69.7481 60.8742C69.4307 60.6129 69.0107 60.4822 68.4881 60.4822C67.9561 60.4822 67.5267 60.6129 67.2001 60.8742C66.8827 61.1356 66.7241 61.4809 66.7241 61.9102ZM66.9761 66.9222C66.9761 66.2596 67.3354 65.7462 68.0541 65.3822C68.7821 65.0089 69.7807 64.8222 71.0501 64.8222C72.3194 64.8222 73.3134 65.0089 74.0321 65.3822C74.7601 65.7462 75.1241 66.2596 75.1241 66.9222C75.1241 67.5756 74.7601 68.0842 74.0321 68.4482C73.3134 68.8216 72.3194 69.0082 71.0501 69.0082C69.7807 69.0082 68.7821 68.8216 68.0541 68.4482C67.3354 68.0842 66.9761 67.5756 66.9761 66.9222ZM68.0821 66.9222C68.0821 67.3142 68.3434 67.6222 68.8661 67.8462C69.3981 68.0609 70.1261 68.1682 71.0501 68.1682C71.9741 68.1682 72.6974 68.0609 73.2201 67.8462C73.7521 67.6222 74.0181 67.3142 74.0181 66.9222C74.0181 66.5209 73.7521 66.2129 73.2201 65.9982C72.6974 65.7742 71.9741 65.6622 71.0501 65.6622C70.1261 65.6622 69.3981 65.7742 68.8661 65.9982C68.3434 66.2129 68.0821 66.5209 68.0821 66.9222ZM87.2624 56.7862V63.1702H86.2124V61.6022H83.3284V62.6802H77.8124V57.3462H78.8764V59.1242H82.2784V57.3462H83.3284V58.5362H86.2124V56.7862H87.2624ZM82.2784 61.8122V59.9642H78.8764V61.8122H82.2784ZM79.4084 63.7862H87.2624V66.6562H80.4724V68.0002H87.7384V68.8542H79.4364V65.8442H86.2264V64.6402H79.4084V63.7862ZM86.2124 60.7622V59.3622H83.3284V60.7622H86.2124ZM103.075 56.7582V69.0362H102.053V56.7582H103.075ZM93.1493 58.2842H97.7413V59.1522H94.1853V65.1722C95.1093 65.1722 95.8793 65.1489 96.4953 65.1022C97.1206 65.0462 97.7459 64.9482 98.3713 64.8082L98.4693 65.7042C97.8066 65.8442 97.1439 65.9376 96.4813 65.9842C95.8186 66.0309 94.9693 66.0542 93.9333 66.0542H93.1493V58.2842ZM96.9153 61.4622H99.5753V57.0802H100.583V68.3922H99.5753V62.3582H96.9153V61.4622ZM114.934 56.7582V69.0502H113.856V56.7582H114.934ZM105.372 61.9802C105.372 61.1309 105.502 60.3842 105.764 59.7402C106.034 59.0962 106.403 58.6016 106.87 58.2562C107.346 57.9016 107.882 57.7242 108.48 57.7242C109.077 57.7242 109.609 57.9016 110.076 58.2562C110.552 58.6016 110.92 59.0962 111.182 59.7402C111.452 60.3842 111.588 61.1309 111.588 61.9802C111.588 62.8296 111.452 63.5809 111.182 64.2342C110.92 64.8782 110.552 65.3776 110.076 65.7322C109.609 66.0776 109.077 66.2502 108.48 66.2502C107.882 66.2502 107.346 66.0776 106.87 65.7322C106.403 65.3776 106.034 64.8782 105.764 64.2342C105.502 63.5809 105.372 62.8296 105.372 61.9802ZM106.408 61.9802C106.408 62.6429 106.496 63.2262 106.674 63.7302C106.851 64.2342 107.094 64.6262 107.402 64.9062C107.719 65.1769 108.078 65.3122 108.48 65.3122C108.89 65.3122 109.25 65.1769 109.558 64.9062C109.875 64.6262 110.122 64.2342 110.3 63.7302C110.477 63.2262 110.566 62.6429 110.566 61.9802C110.566 61.3176 110.477 60.7389 110.3 60.2442C110.122 59.7402 109.875 59.3529 109.558 59.0822C109.25 58.8116 108.89 58.6762 108.48 58.6762C108.078 58.6762 107.719 58.8116 107.402 59.0822C107.094 59.3529 106.851 59.7402 106.674 60.2442C106.496 60.7482 106.408 61.3269 106.408 61.9802ZM127.212 56.7582V69.0502H126.162V62.3022H123.572V61.4202H126.162V56.7582H127.212ZM117.734 57.8922H123.376V58.7742H118.784V61.3502H122.844V62.2042H118.784V65.2002C119.997 65.2002 120.991 65.1769 121.766 65.1302C122.55 65.0742 123.343 64.9716 124.146 64.8222L124.258 65.7042C123.409 65.8536 122.569 65.9562 121.738 66.0122C120.917 66.0589 119.89 66.0822 118.658 66.0822H117.734V57.8922ZM138.699 57.2202V57.9062C138.699 58.4569 138.909 58.9889 139.329 59.5022C139.758 60.0062 140.313 60.4356 140.995 60.7902C141.685 61.1356 142.395 61.3642 143.123 61.4762L142.689 62.3162C141.718 62.1482 140.813 61.8076 139.973 61.2942C139.142 60.7716 138.54 60.1462 138.167 59.4182C137.784 60.1556 137.173 60.7809 136.333 61.2942C135.502 61.8076 134.597 62.1482 133.617 62.3162L133.183 61.4762C133.929 61.3642 134.639 61.1356 135.311 60.7902C135.992 60.4449 136.543 60.0202 136.963 59.5162C137.392 59.0122 137.607 58.4756 137.607 57.9062V57.2202H138.699ZM132.609 63.6742H143.683V64.5702H138.643V69.0362H137.593V64.5702H132.609V63.6742ZM152.041 57.5842V58.4522H149.227V58.7882C149.227 59.3109 149.362 59.8149 149.633 60.3002C149.904 60.7762 150.272 61.2009 150.739 61.5742C151.215 61.9382 151.752 62.2136 152.349 62.4002L151.817 63.2262C151.108 62.9929 150.478 62.6429 149.927 62.1762C149.386 61.7002 148.98 61.1449 148.709 60.5102C148.438 61.1916 148.028 61.7889 147.477 62.3022C146.926 62.8062 146.287 63.1842 145.559 63.4362L145.027 62.5962C145.951 62.2882 146.702 61.7889 147.281 61.0982C147.86 60.3982 148.149 59.6282 148.149 58.7882V58.4522H145.321V57.5842H152.041ZM147.029 64.0242H148.065V65.5082H153.847V64.0242H154.883V68.8542H147.029V64.0242ZM153.847 67.9862V66.3762H148.065V67.9862H153.847ZM153.819 56.7862H154.883V63.4082H153.819V56.7862Z" fill="#212121"/>
<path d="M37.092 110.72C36.724 110.72 36.412 110.628 36.156 110.444C35.908 110.26 35.784 109.964 35.784 109.556C35.784 109.292 35.856 109.072 36 108.896C36.144 108.72 36.36 108.584 36.648 108.488C36.936 108.384 37.292 108.324 37.716 108.308L38.292 108.284V108.116C38.292 107.844 38.232 107.644 38.112 107.516C37.992 107.38 37.816 107.312 37.584 107.312C37.432 107.312 37.26 107.34 37.068 107.396C36.884 107.444 36.672 107.524 36.432 107.636L36.216 107.072C36.448 106.96 36.676 106.876 36.9 106.82C37.132 106.756 37.372 106.724 37.62 106.724C38.116 106.724 38.484 106.828 38.724 107.036C38.964 107.244 39.084 107.576 39.084 108.032V110.66H38.472L38.316 109.772L38.484 109.868C38.292 110.14 38.092 110.352 37.884 110.504C37.684 110.648 37.42 110.72 37.092 110.72ZM37.224 110.132C37.432 110.132 37.616 110.096 37.776 110.024C37.936 109.952 38.06 109.84 38.148 109.688C38.244 109.528 38.292 109.332 38.292 109.1V108.8L37.8 108.824C37.336 108.848 37.016 108.92 36.84 109.04C36.672 109.16 36.588 109.336 36.588 109.568C36.588 109.752 36.648 109.892 36.768 109.988C36.888 110.084 37.04 110.132 37.224 110.132ZM37.5 113.66C36.82 113.66 36.18 113.532 35.58 113.276C34.98 113.02 34.452 112.668 33.996 112.22C33.548 111.764 33.196 111.236 32.94 110.636C32.684 110.036 32.556 109.396 32.556 108.716C32.556 108.028 32.684 107.388 32.94 106.796C33.196 106.196 33.548 105.672 33.996 105.224C34.452 104.768 34.98 104.412 35.58 104.156C36.18 103.9 36.82 103.772 37.5 103.772C38.188 103.772 38.828 103.9 39.42 104.156C40.02 104.412 40.544 104.768 40.992 105.224C41.448 105.672 41.804 106.196 42.06 106.796C42.316 107.388 42.444 108.028 42.444 108.716C42.444 109.396 42.316 110.036 42.06 110.636C41.804 111.236 41.448 111.764 40.992 112.22C40.544 112.668 40.02 113.02 39.42 113.276C38.828 113.532 38.188 113.66 37.5 113.66ZM37.5 112.988C38.092 112.988 38.644 112.88 39.156 112.664C39.676 112.44 40.132 112.132 40.524 111.74C40.916 111.348 41.22 110.896 41.436 110.384C41.66 109.864 41.772 109.308 41.772 108.716C41.772 108.124 41.66 107.572 41.436 107.06C41.22 106.54 40.916 106.084 40.524 105.692C40.132 105.3 39.676 104.996 39.156 104.78C38.644 104.556 38.092 104.444 37.5 104.444C36.908 104.444 36.352 104.556 35.832 104.78C35.32 104.996 34.868 105.3 34.476 105.692C34.084 106.084 33.776 106.54 33.552 107.06C33.336 107.572 33.228 108.124 33.228 108.716C33.228 109.308 33.336 109.864 33.552 110.384C33.776 110.896 34.084 111.348 34.476 111.74C34.868 112.132 35.32 112.44 35.832 112.664C36.352 112.88 36.908 112.988 37.5 112.988ZM49.884 108.224V108.932H44.34V108.224H49.884ZM34.92 119.06C35.432 119.06 35.888 119.164 36.288 119.372C36.696 119.572 37.012 119.856 37.236 120.224C37.468 120.592 37.584 121.016 37.584 121.496C37.584 121.968 37.468 122.388 37.236 122.756C37.012 123.116 36.696 123.4 36.288 123.608C35.888 123.808 35.432 123.908 34.92 123.908C34.408 123.908 33.948 123.808 33.54 123.608C33.132 123.4 32.812 123.116 32.58 122.756C32.356 122.388 32.244 121.968 32.244 121.496C32.244 121.016 32.356 120.592 32.58 120.224C32.812 119.856 33.132 119.572 33.54 119.372C33.948 119.164 34.408 119.06 34.92 119.06ZM32.964 121.496C32.964 122.016 33.148 122.448 33.516 122.792C33.884 123.128 34.352 123.296 34.92 123.296C35.296 123.296 35.632 123.22 35.928 123.068C36.232 122.908 36.468 122.692 36.636 122.42C36.804 122.148 36.888 121.84 36.888 121.496C36.888 120.968 36.7 120.536 36.324 120.2C35.956 119.856 35.488 119.684 34.92 119.684C34.352 119.684 33.884 119.856 33.516 120.2C33.148 120.536 32.964 120.968 32.964 121.496ZM33.384 126.908C33.384 126.308 33.684 125.84 34.284 125.504C34.884 125.16 35.712 124.988 36.768 124.988C37.816 124.988 38.64 125.16 39.24 125.504C39.848 125.84 40.152 126.308 40.152 126.908C40.152 127.508 39.852 127.976 39.252 128.312C38.652 128.648 37.824 128.816 36.768 128.816C35.712 128.816 34.884 128.648 34.284 128.312C33.684 127.976 33.384 127.508 33.384 126.908ZM34.092 126.908C34.092 127.308 34.332 127.628 34.812 127.868C35.3 128.1 35.952 128.216 36.768 128.216C37.584 128.216 38.232 128.1 38.712 127.868C39.192 127.628 39.432 127.308 39.432 126.908C39.432 126.5 39.192 126.18 38.712 125.948C38.232 125.716 37.584 125.6 36.768 125.6C35.944 125.6 35.292 125.716 34.812 125.948C34.332 126.18 34.092 126.5 34.092 126.908ZM39.324 118.412H40.056V120.08H41.64V120.716H40.056V122.288H41.64V122.9H40.056V124.628H39.324V118.412ZM46.0683 118.916V119.936C46.0683 120.456 46.1883 120.952 46.4283 121.424C46.6683 121.888 46.9923 122.3 47.4003 122.66C47.8083 123.012 48.2603 123.28 48.7563 123.464L48.3843 124.04C47.7683 123.8 47.2243 123.448 46.7523 122.984C46.2803 122.52 45.9363 121.984 45.7203 121.376C45.5043 122.024 45.1603 122.6 44.6883 123.104C44.2163 123.608 43.6683 123.988 43.0443 124.244L42.6603 123.656C43.1643 123.456 43.6163 123.168 44.0163 122.792C44.4243 122.416 44.7443 121.98 44.9763 121.484C45.2163 120.988 45.3363 120.472 45.3363 119.936V118.916H46.0683ZM44.1123 125.264H51.0003V128.852H50.2683V125.876H44.1123V125.264ZM50.2683 118.412H51.0003V124.724H50.2683V118.412ZM60.7806 121.004V118.412H61.5246V125.18H60.7806V123.632H58.8486V123.02H60.7806V121.616H58.8486V121.004H60.7806ZM53.0046 119.648H55.6206V118.316H56.3526V119.648H58.9086V120.248H53.0046V119.648ZM53.6406 122.78C53.6406 122.204 53.8566 121.74 54.2886 121.388C54.7206 121.036 55.2846 120.86 55.9806 120.86C56.6686 120.86 57.2246 121.036 57.6486 121.388C58.0806 121.74 58.2966 122.204 58.2966 122.78C58.2966 123.356 58.0806 123.824 57.6486 124.184C57.2246 124.536 56.6686 124.712 55.9806 124.712C55.2846 124.712 54.7206 124.536 54.2886 124.184C53.8566 123.824 53.6406 123.356 53.6406 122.78ZM54.3486 122.78C54.3486 123.18 54.4966 123.508 54.7926 123.764C55.0966 124.012 55.4926 124.136 55.9806 124.136C56.4606 124.136 56.8486 124.012 57.1446 123.764C57.4486 123.508 57.6006 123.18 57.6006 122.78C57.6006 122.388 57.4486 122.068 57.1446 121.82C56.8486 121.572 56.4606 121.448 55.9806 121.448C55.4926 121.448 55.0966 121.572 54.7926 121.82C54.4966 122.06 54.3486 122.38 54.3486 122.78ZM54.7086 127.064C54.7086 126.504 55.0126 126.068 55.6206 125.756C56.2286 125.444 57.0726 125.288 58.1526 125.288C59.2246 125.288 60.0646 125.444 60.6726 125.756C61.2806 126.068 61.5846 126.504 61.5846 127.064C61.5846 127.616 61.2806 128.044 60.6726 128.348C60.0646 128.66 59.2246 128.816 58.1526 128.816C57.0726 128.816 56.2286 128.66 55.6206 128.348C55.0126 128.044 54.7086 127.616 54.7086 127.064ZM55.4646 127.064C55.4646 127.424 55.7046 127.708 56.1846 127.916C56.6726 128.124 57.3286 128.228 58.1526 128.228C58.9766 128.228 59.6286 128.124 60.1086 127.916C60.5886 127.708 60.8286 127.424 60.8286 127.064C60.8286 126.688 60.5886 126.396 60.1086 126.188C59.6286 125.98 58.9766 125.876 58.1526 125.876C57.3206 125.876 56.6646 125.98 56.1846 126.188C55.7046 126.396 55.4646 126.688 55.4646 127.064Z" fill="#212121"/>
<path d="M82.124 101.336V101.948H79.64V102.704C79.64 103.184 79.76 103.64 80 104.072C80.24 104.504 80.564 104.884 80.972 105.212C81.388 105.532 81.844 105.776 82.34 105.944L81.98 106.532C81.364 106.308 80.816 105.98 80.336 105.548C79.856 105.108 79.504 104.604 79.28 104.036C79.064 104.652 78.716 105.196 78.236 105.668C77.764 106.14 77.216 106.496 76.592 106.736L76.208 106.148C76.712 105.964 77.168 105.7 77.576 105.356C77.984 105.004 78.304 104.6 78.536 104.144C78.776 103.68 78.896 103.2 78.896 102.704V101.948H76.388V101.336H82.124ZM77.924 107.372H78.644V109.976H84.86V110.6H77.924V107.372ZM83.768 100.424H84.512V108.092H83.768V100.424ZM94.5443 100.412V103.616H96.1523V104.228H94.5443V107.972H93.8003V100.412H94.5443ZM87.0083 101.348H91.5803V101.96H87.7283V105.44H87.7883C88.9003 105.44 89.8043 105.416 90.5003 105.368C91.1963 105.32 91.8923 105.228 92.5883 105.092L92.6723 105.692C91.9363 105.836 91.2123 105.936 90.5003 105.992C89.7883 106.048 88.8843 106.076 87.7883 106.076H87.0083V101.348ZM88.1363 107.228H88.8563V109.976H95.0363V110.6H88.1363V107.228ZM104.793 104.072V100.412H105.513V110.852H104.793V104.684H102.189V104.072H104.793ZM97.0406 108.008C97.5206 107.76 97.9726 107.392 98.3966 106.904C98.8206 106.416 99.1606 105.86 99.4166 105.236C99.6726 104.612 99.8006 103.988 99.8006 103.364V101.348H100.545V103.364C100.545 103.964 100.673 104.564 100.929 105.164C101.193 105.756 101.537 106.288 101.961 106.76C102.385 107.232 102.833 107.584 103.305 107.816L102.873 108.404C102.281 108.092 101.741 107.628 101.253 107.012C100.765 106.388 100.409 105.7 100.185 104.948C99.9686 105.74 99.6166 106.464 99.1286 107.12C98.6406 107.776 98.1006 108.268 97.5086 108.596L97.0406 108.008Z" fill="#212121"/>
<rect x="71.75" y="96.2502" width="39.5" height="18.5" rx="1.75" stroke="#BDBDBD" stroke-width="0.5"/>
<path d="M84.536 121.412V127.616H83.792V125.852H81.212V126.8H76.52V122.216H81.212V123.176H83.792V121.412H84.536ZM80.492 126.2V122.828H77.228V126.2H80.492ZM77.72 129.872C77.72 129.264 78.024 128.788 78.632 128.444C79.24 128.1 80.08 127.928 81.152 127.928C82.216 127.928 83.052 128.1 83.66 128.444C84.276 128.788 84.584 129.264 84.584 129.872C84.584 130.488 84.28 130.964 83.672 131.3C83.064 131.644 82.224 131.816 81.152 131.816C80.08 131.816 79.24 131.644 78.632 131.3C78.024 130.964 77.72 130.488 77.72 129.872ZM78.428 129.872C78.428 130.288 78.672 130.616 79.16 130.856C79.656 131.096 80.32 131.216 81.152 131.216C81.984 131.216 82.64 131.096 83.12 130.856C83.608 130.616 83.852 130.288 83.852 129.872C83.852 129.456 83.608 129.128 83.12 128.888C82.64 128.648 81.984 128.528 81.152 128.528C80.32 128.528 79.656 128.648 79.16 128.888C78.672 129.128 78.428 129.456 78.428 129.872ZM83.792 125.24V123.788H81.212V125.24H83.792ZM92.5043 125.252V121.664H93.2003V131.3H92.5043V125.852H90.6083V125.252H92.5043ZM86.4203 128.984C86.8763 128.712 87.2843 128.34 87.6443 127.868C88.0043 127.396 88.2843 126.868 88.4843 126.284C88.6923 125.7 88.7963 125.108 88.7963 124.508V122.42H89.5043V124.484C89.5043 125.036 89.6003 125.592 89.7923 126.152C89.9843 126.704 90.2523 127.208 90.5963 127.664C90.9403 128.12 91.3323 128.48 91.7723 128.744L91.3403 129.308C90.8363 129.004 90.3963 128.58 90.0203 128.036C89.6443 127.484 89.3603 126.876 89.1683 126.212C88.9763 126.932 88.6803 127.588 88.2803 128.18C87.8883 128.764 87.4323 129.216 86.9123 129.536L86.4203 128.984ZM94.6283 121.412H95.3483V131.852H94.6283V121.412ZM104.793 125.072V121.412H105.513V131.852H104.793V125.684H102.189V125.072H104.793ZM97.0406 129.008C97.5206 128.76 97.9726 128.392 98.3966 127.904C98.8206 127.416 99.1606 126.86 99.4166 126.236C99.6726 125.612 99.8006 124.988 99.8006 124.364V122.348H100.545V124.364C100.545 124.964 100.673 125.564 100.929 126.164C101.193 126.756 101.537 127.288 101.961 127.76C102.385 128.232 102.833 128.584 103.305 128.816L102.873 129.404C102.281 129.092 101.741 128.628 101.253 128.012C100.765 127.388 100.409 126.7 100.185 125.948C99.9686 126.74 99.6166 127.464 99.1286 128.12C98.6406 128.776 98.1006 129.268 97.5086 129.596L97.0406 129.008Z" fill="#212121"/>
<rect x="71.75" y="117.25" width="39.5" height="18.5" rx="1.75" stroke="#BDBDBD" stroke-width="0.5"/>
<path d="M126.536 100.412V110.852H125.804V105.296H123.404V104.66H125.804V100.412H126.536ZM118.088 108.224C118.576 107.984 119.024 107.64 119.432 107.192C119.848 106.736 120.176 106.216 120.416 105.632C120.664 105.048 120.788 104.452 120.788 103.844V102.872H118.34V102.272H120.776V100.592H121.508V102.272H123.908V102.872H121.508V103.844C121.508 104.428 121.632 105 121.88 105.56C122.128 106.112 122.46 106.604 122.876 107.036C123.3 107.468 123.76 107.8 124.256 108.032L123.836 108.608C123.228 108.312 122.684 107.884 122.204 107.324C121.724 106.756 121.372 106.12 121.148 105.416C120.932 106.16 120.588 106.832 120.116 107.432C119.644 108.032 119.108 108.488 118.508 108.8L118.088 108.224ZM133.244 107.024C134.3 107.024 135.128 107.192 135.728 107.528C136.328 107.864 136.628 108.328 136.628 108.92C136.628 109.52 136.328 109.988 135.728 110.324C135.128 110.66 134.3 110.828 133.244 110.828C132.188 110.828 131.36 110.66 130.76 110.324C130.16 109.988 129.86 109.52 129.86 108.92C129.86 108.328 130.16 107.864 130.76 107.528C131.36 107.192 132.188 107.024 133.244 107.024ZM128.972 101.072H129.692V102.752H133.004V101.072H133.736V105.836H128.972V101.072ZM133.004 105.236V103.34H129.692V105.236H133.004ZM130.58 108.92C130.58 109.328 130.82 109.648 131.3 109.88C131.78 110.112 132.428 110.228 133.244 110.228C134.068 110.228 134.72 110.112 135.2 109.88C135.68 109.648 135.92 109.328 135.92 108.92C135.92 108.52 135.68 108.208 135.2 107.984C134.72 107.752 134.068 107.636 133.244 107.636C132.42 107.636 131.768 107.752 131.288 107.984C130.816 108.208 130.58 108.52 130.58 108.92ZM135.8 100.412H136.544V103.112H138.14V103.736H136.544V106.724H135.8V100.412ZM146.769 103.376V100.424H147.513V108.08H146.769V103.988H144.501V103.376H146.769ZM139.065 106.088C139.561 105.904 140.013 105.636 140.421 105.284C140.829 104.932 141.153 104.524 141.393 104.06C141.633 103.596 141.753 103.108 141.753 102.596V101.936H139.317V101.336H144.885V101.936H142.485V102.596C142.485 103.052 142.597 103.496 142.821 103.928C143.053 104.36 143.365 104.744 143.757 105.08C144.157 105.416 144.601 105.668 145.089 105.836L144.705 106.424C144.121 106.2 143.601 105.872 143.145 105.44C142.697 105 142.361 104.5 142.137 103.94C141.921 104.564 141.573 105.12 141.093 105.608C140.621 106.088 140.077 106.448 139.461 106.688L139.065 106.088ZM140.949 107.396H141.693V109.976H147.825V110.6H140.949V107.396Z" fill="#212121"/>
<rect x="113.75" y="96.2502" width="39.5" height="18.5" rx="1.75" stroke="#BDBDBD" stroke-width="0.5"/>
<path d="M125.659 126.008V127.172H124.471V126.008H125.659ZM134.096 126.008V127.172H132.908V126.008H134.096ZM142.534 126.008V127.172H141.346V126.008H142.534Z" fill="#212121"/>
<rect x="113.75" y="117.25" width="39.5" height="18.5" rx="1.75" stroke="#BDBDBD" stroke-width="0.5"/>
<rect x="16.5" y="90.5002" width="148" height="51" rx="1.5" stroke="#BDBDBD"/>
<path d="M37.944 169.248C37.672 169.248 37.428 169.184 37.212 169.056C36.996 168.92 36.8 168.72 36.624 168.456L36.792 168.36L36.624 169.2H36.036V163.74H36.828V165.084C36.828 165.212 36.82 165.34 36.804 165.468C36.796 165.588 36.788 165.712 36.78 165.84L36.816 165.852C36.976 165.644 37.14 165.492 37.308 165.396C37.484 165.3 37.696 165.252 37.944 165.252C38.448 165.252 38.852 165.42 39.156 165.756C39.468 166.092 39.624 166.588 39.624 167.244C39.624 167.916 39.468 168.42 39.156 168.756C38.852 169.084 38.448 169.248 37.944 169.248ZM37.86 168.66C38.18 168.66 38.416 168.544 38.568 168.312C38.728 168.072 38.808 167.712 38.808 167.232C38.808 166.76 38.728 166.412 38.568 166.188C38.408 165.956 38.168 165.84 37.848 165.84C37.456 165.84 37.188 165.952 37.044 166.176C36.9 166.4 36.828 166.748 36.828 167.22V167.244C36.828 167.724 36.9 168.08 37.044 168.312C37.196 168.544 37.468 168.66 37.86 168.66ZM37.5 171.66C36.82 171.66 36.18 171.532 35.58 171.276C34.98 171.02 34.452 170.668 33.996 170.22C33.548 169.764 33.196 169.236 32.94 168.636C32.684 168.036 32.556 167.396 32.556 166.716C32.556 166.028 32.684 165.388 32.94 164.796C33.196 164.196 33.548 163.672 33.996 163.224C34.452 162.768 34.98 162.412 35.58 162.156C36.18 161.9 36.82 161.772 37.5 161.772C38.188 161.772 38.828 161.9 39.42 162.156C40.02 162.412 40.544 162.768 40.992 163.224C41.448 163.672 41.804 164.196 42.06 164.796C42.316 165.388 42.444 166.028 42.444 166.716C42.444 167.396 42.316 168.036 42.06 168.636C41.804 169.236 41.448 169.764 40.992 170.22C40.544 170.668 40.02 171.02 39.42 171.276C38.828 171.532 38.188 171.66 37.5 171.66ZM37.5 170.988C38.092 170.988 38.644 170.88 39.156 170.664C39.676 170.44 40.132 170.132 40.524 169.74C40.916 169.348 41.22 168.896 41.436 168.384C41.66 167.864 41.772 167.308 41.772 166.716C41.772 166.124 41.66 165.572 41.436 165.06C41.22 164.54 40.916 164.084 40.524 163.692C40.132 163.3 39.676 162.996 39.156 162.78C38.644 162.556 38.092 162.444 37.5 162.444C36.908 162.444 36.352 162.556 35.832 162.78C35.32 162.996 34.868 163.3 34.476 163.692C34.084 164.084 33.776 164.54 33.552 165.06C33.336 165.572 33.228 166.124 33.228 166.716C33.228 167.308 33.336 167.864 33.552 168.384C33.776 168.896 34.084 169.348 34.476 169.74C34.868 170.132 35.32 170.44 35.832 170.664C36.352 170.88 36.908 170.988 37.5 170.988ZM49.884 166.224V166.932H44.34V166.224H49.884ZM39.816 180.072V176.412H40.536V186.852H39.816V180.684H37.212V180.072H39.816ZM32.064 184.008C32.544 183.76 32.996 183.392 33.42 182.904C33.844 182.416 34.184 181.86 34.44 181.236C34.696 180.612 34.824 179.988 34.824 179.364V177.348H35.568V179.364C35.568 179.964 35.696 180.564 35.952 181.164C36.216 181.756 36.56 182.288 36.984 182.76C37.408 183.232 37.856 183.584 38.328 183.816L37.896 184.404C37.304 184.092 36.764 183.628 36.276 183.012C35.788 182.388 35.432 181.7 35.208 180.948C34.992 181.74 34.64 182.464 34.152 183.12C33.664 183.776 33.124 184.268 32.532 184.596L32.064 184.008ZM47.5803 176.472V176.928C47.5803 177.368 47.7723 177.772 48.1563 178.14C48.5403 178.508 49.0243 178.812 49.6083 179.052C50.1923 179.292 50.7843 179.448 51.3843 179.52L51.1203 180.084C50.2883 179.964 49.5043 179.716 48.7683 179.34C48.0323 178.956 47.5163 178.484 47.2203 177.924C46.9163 178.484 46.3923 178.956 45.6483 179.34C44.9043 179.716 44.1163 179.964 43.2843 180.084L43.0443 179.52C43.6443 179.448 44.2363 179.292 44.8203 179.052C45.4043 178.812 45.8843 178.508 46.2603 178.14C46.6443 177.772 46.8363 177.368 46.8363 176.928V176.472H47.5803ZM42.5043 180.864H51.9243V181.476H47.5563V182.64H50.6883V184.908H44.4123V186.12H51.0243V186.708H43.7043V184.332H49.9683V183.228H43.6683V182.64H46.8363V181.476H42.5043V180.864ZM60.7806 179.004V176.412H61.5246V183.18H60.7806V181.632H58.8486V181.02H60.7806V179.616H58.8486V179.004H60.7806ZM53.0046 177.648H55.6206V176.316H56.3526V177.648H58.9086V178.248H53.0046V177.648ZM53.6406 180.78C53.6406 180.204 53.8566 179.74 54.2886 179.388C54.7206 179.036 55.2846 178.86 55.9806 178.86C56.6686 178.86 57.2246 179.036 57.6486 179.388C58.0806 179.74 58.2966 180.204 58.2966 180.78C58.2966 181.356 58.0806 181.824 57.6486 182.184C57.2246 182.536 56.6686 182.712 55.9806 182.712C55.2846 182.712 54.7206 182.536 54.2886 182.184C53.8566 181.824 53.6406 181.356 53.6406 180.78ZM54.3486 180.78C54.3486 181.18 54.4966 181.508 54.7926 181.764C55.0966 182.012 55.4926 182.136 55.9806 182.136C56.4606 182.136 56.8486 182.012 57.1446 181.764C57.4486 181.508 57.6006 181.18 57.6006 180.78C57.6006 180.388 57.4486 180.068 57.1446 179.82C56.8486 179.572 56.4606 179.448 55.9806 179.448C55.4926 179.448 55.0966 179.572 54.7926 179.82C54.4966 180.06 54.3486 180.38 54.3486 180.78ZM54.7086 185.064C54.7086 184.504 55.0126 184.068 55.6206 183.756C56.2286 183.444 57.0726 183.288 58.1526 183.288C59.2246 183.288 60.0646 183.444 60.6726 183.756C61.2806 184.068 61.5846 184.504 61.5846 185.064C61.5846 185.616 61.2806 186.044 60.6726 186.348C60.0646 186.66 59.2246 186.816 58.1526 186.816C57.0726 186.816 56.2286 186.66 55.6206 186.348C55.0126 186.044 54.7086 185.616 54.7086 185.064ZM55.4646 185.064C55.4646 185.424 55.7046 185.708 56.1846 185.916C56.6726 186.124 57.3286 186.228 58.1526 186.228C58.9766 186.228 59.6286 186.124 60.1086 185.916C60.5886 185.708 60.8286 185.424 60.8286 185.064C60.8286 184.688 60.5886 184.396 60.1086 184.188C59.6286 183.98 58.9766 183.876 58.1526 183.876C57.3206 183.876 56.6646 183.98 56.1846 184.188C55.7046 184.396 55.4646 184.688 55.4646 185.064Z" fill="#212121"/>
<path d="M90.9477 163.452V164.076H81.5277V163.452H90.9477ZM82.6797 166.956C82.6797 166.364 82.9917 165.904 83.6157 165.576C84.2477 165.248 85.1197 165.084 86.2317 165.084C87.3437 165.084 88.2117 165.248 88.8357 165.576C89.4677 165.904 89.7837 166.364 89.7837 166.956C89.7837 167.548 89.4717 168.004 88.8477 168.324C88.2237 168.644 87.3517 168.804 86.2317 168.804C85.1117 168.804 84.2397 168.644 83.6157 168.324C82.9917 168.004 82.6797 167.548 82.6797 166.956ZM82.7397 158.88H89.7477V159.492H83.4597V161.748H89.8317V162.36H82.7397V158.88ZM83.4237 166.956C83.4237 167.348 83.6757 167.66 84.1797 167.892C84.6837 168.116 85.3677 168.228 86.2317 168.228C87.0957 168.228 87.7797 168.116 88.2837 167.892C88.7877 167.66 89.0397 167.348 89.0397 166.956C89.0397 166.556 88.7877 166.244 88.2837 166.02C87.7877 165.796 87.1037 165.684 86.2317 165.684C85.3677 165.684 84.6837 165.796 84.1797 166.02C83.6757 166.244 83.4237 166.556 83.4237 166.956ZM94.008 158.856V160.26H99.456V158.856H100.2V162.972H97.092V164.172H101.436V164.796H92.016V164.172H96.372V162.972H93.276V158.856H94.008ZM93.264 165.732H93.984V167.976H100.38V168.6H93.264V165.732ZM99.456 162.372V160.872H94.008V162.372H99.456Z" fill="#212121"/>
<rect x="71.75" y="154.25" width="39.5" height="18.5" rx="1.75" stroke="#BDBDBD" stroke-width="0.5"/>
<path d="M85.436 184.44V185.052H76.016V184.44H85.436ZM76.592 183.12C77.184 183.048 77.764 182.9 78.332 182.676C78.9 182.444 79.368 182.152 79.736 181.8C80.104 181.448 80.288 181.06 80.288 180.636V180.576H76.88V179.964H84.584V180.576H81.176V180.636C81.176 181.06 81.356 181.448 81.716 181.8C82.084 182.144 82.552 182.432 83.12 182.664C83.688 182.896 84.268 183.048 84.86 183.12L84.584 183.708C83.736 183.588 82.948 183.336 82.22 182.952C81.492 182.568 80.996 182.088 80.732 181.512C80.46 182.088 79.96 182.572 79.232 182.964C78.504 183.348 77.716 183.596 76.868 183.708L76.592 183.12ZM77.168 187.956C77.168 187.364 77.48 186.904 78.104 186.576C78.736 186.248 79.608 186.084 80.72 186.084C81.832 186.084 82.7 186.248 83.324 186.576C83.956 186.904 84.272 187.364 84.272 187.956C84.272 188.54 83.956 188.992 83.324 189.312C82.7 189.64 81.832 189.804 80.72 189.804C79.608 189.804 78.736 189.64 78.104 189.312C77.48 188.992 77.168 188.54 77.168 187.956ZM77.912 187.956C77.912 188.348 78.164 188.656 78.668 188.88C79.172 189.104 79.856 189.216 80.72 189.216C81.584 189.216 82.268 189.104 82.772 188.88C83.276 188.656 83.528 188.348 83.528 187.956C83.528 187.548 83.276 187.232 82.772 187.008C82.276 186.784 81.592 186.672 80.72 186.672C79.856 186.672 79.172 186.784 78.668 187.008C78.164 187.232 77.912 187.548 77.912 187.956ZM95.0243 179.412V185.616H94.2803V183.852H91.7003V184.8H87.0083V180.216H91.7003V181.176H94.2803V179.412H95.0243ZM90.9803 184.2V180.828H87.7163V184.2H90.9803ZM88.2083 187.872C88.2083 187.264 88.5123 186.788 89.1203 186.444C89.7283 186.1 90.5683 185.928 91.6403 185.928C92.7043 185.928 93.5403 186.1 94.1483 186.444C94.7643 186.788 95.0723 187.264 95.0723 187.872C95.0723 188.488 94.7683 188.964 94.1603 189.3C93.5523 189.644 92.7123 189.816 91.6403 189.816C90.5683 189.816 89.7283 189.644 89.1203 189.3C88.5123 188.964 88.2083 188.488 88.2083 187.872ZM88.9163 187.872C88.9163 188.288 89.1603 188.616 89.6483 188.856C90.1443 189.096 90.8083 189.216 91.6403 189.216C92.4723 189.216 93.1283 189.096 93.6083 188.856C94.0963 188.616 94.3403 188.288 94.3403 187.872C94.3403 187.456 94.0963 187.128 93.6083 186.888C93.1283 186.648 92.4723 186.528 91.6403 186.528C90.8083 186.528 90.1443 186.648 89.6483 186.888C89.1603 187.128 88.9163 187.456 88.9163 187.872ZM94.2803 183.24V181.788H91.7003V183.24H94.2803ZM104.793 183.072V179.412H105.513V189.852H104.793V183.684H102.189V183.072H104.793ZM97.0406 187.008C97.5206 186.76 97.9726 186.392 98.3966 185.904C98.8206 185.416 99.1606 184.86 99.4166 184.236C99.6726 183.612 99.8006 182.988 99.8006 182.364V180.348H100.545V182.364C100.545 182.964 100.673 183.564 100.929 184.164C101.193 184.756 101.537 185.288 101.961 185.76C102.385 186.232 102.833 186.584 103.305 186.816L102.873 187.404C102.281 187.092 101.741 186.628 101.253 186.012C100.765 185.388 100.409 184.7 100.185 183.948C99.9686 184.74 99.6166 185.464 99.1286 186.12C98.6406 186.776 98.1006 187.268 97.5086 187.596L97.0406 187.008Z" fill="#212121"/>
<rect x="71.75" y="175.25" width="39.5" height="18.5" rx="1.75" stroke="#BDBDBD" stroke-width="0.5"/>
<path d="M124.064 163.992V161.988H122.156C121.9 162.9 121.468 163.748 120.86 164.532C120.252 165.308 119.472 165.988 118.52 166.572L118.076 166.032C119.204 165.352 120.076 164.528 120.692 163.56C121.308 162.592 121.656 161.536 121.736 160.392H118.484V159.78H122.456C122.456 160.332 122.404 160.864 122.3 161.376H124.064V158.7H124.76V168.288H124.064V164.616H121.988V163.992H124.064ZM126.128 158.412H126.836V168.852H126.128V158.412ZM136.544 158.412V160.104H138.128V160.728H136.544V162.312H138.128V162.936H136.544V164.628H135.812V158.412H136.544ZM128.732 161.496C128.732 161.024 128.844 160.604 129.068 160.236C129.3 159.86 129.62 159.572 130.028 159.372C130.436 159.164 130.896 159.06 131.408 159.06C131.92 159.06 132.376 159.164 132.776 159.372C133.184 159.572 133.5 159.86 133.724 160.236C133.956 160.604 134.072 161.024 134.072 161.496C134.072 161.968 133.956 162.392 133.724 162.768C133.5 163.136 133.184 163.424 132.776 163.632C132.376 163.832 131.92 163.932 131.408 163.932C130.896 163.932 130.436 163.832 130.028 163.632C129.62 163.424 129.3 163.136 129.068 162.768C128.844 162.392 128.732 161.968 128.732 161.496ZM129.452 161.496C129.452 161.84 129.536 162.152 129.704 162.432C129.872 162.704 130.104 162.92 130.4 163.08C130.696 163.232 131.032 163.308 131.408 163.308C131.784 163.308 132.12 163.232 132.416 163.08C132.72 162.92 132.956 162.704 133.124 162.432C133.292 162.152 133.376 161.84 133.376 161.496C133.376 160.968 133.188 160.536 132.812 160.2C132.444 159.864 131.976 159.696 131.408 159.696C130.84 159.696 130.372 159.864 130.004 160.2C129.636 160.536 129.452 160.968 129.452 161.496ZM129.848 165.144H136.544V168.852H135.812V165.768H129.848V165.144ZM146.793 162.072V158.412H147.513V168.852H146.793V162.684H144.189V162.072H146.793ZM139.041 166.008C139.521 165.76 139.973 165.392 140.397 164.904C140.821 164.416 141.161 163.86 141.417 163.236C141.673 162.612 141.801 161.988 141.801 161.364V159.348H142.545V161.364C142.545 161.964 142.673 162.564 142.929 163.164C143.193 163.756 143.537 164.288 143.961 164.76C144.385 165.232 144.833 165.584 145.305 165.816L144.873 166.404C144.281 166.092 143.741 165.628 143.253 165.012C142.765 164.388 142.409 163.7 142.185 162.948C141.969 163.74 141.617 164.464 141.129 165.12C140.641 165.776 140.101 166.268 139.509 166.596L139.041 166.008Z" fill="#212121"/>
<rect x="113.75" y="154.25" width="39.5" height="18.5" rx="1.75" stroke="#BDBDBD" stroke-width="0.5"/>
<path d="M125.659 184.008V185.172H124.471V184.008H125.659ZM134.096 184.008V185.172H132.908V184.008H134.096ZM142.534 184.008V185.172H141.346V184.008H142.534Z" fill="#212121"/>
<rect x="113.75" y="175.25" width="39.5" height="18.5" rx="1.75" stroke="#BDBDBD" stroke-width="0.5"/>
<rect x="16.5" y="148.5" width="148" height="51" rx="1.5" stroke="#BDBDBD"/>
<rect x="0.5" y="0.500244" width="180" height="215" rx="1.5" stroke="#BDBDBD"/>
</svg>
