<svg width="148" height="216" viewBox="0 0 148 216" fill="none" xmlns="http://www.w3.org/2000/svg">
<rect x="0.5" y="0.500244" width="147" height="215" rx="1.5" fill="white"/>
<path d="M38.1843 86.7842C38.6963 85.9949 38.9576 85.1469 38.9683 84.2402C38.9683 83.4082 38.7709 82.6456 38.3763 81.9522C37.9816 81.2589 37.4483 80.7096 36.7763 80.3042C36.1043 79.8989 35.3789 79.6962 34.6003 79.6962C33.8216 79.6962 33.0963 79.8989 32.4243 80.3042C31.7523 80.7096 31.2189 81.2589 30.8243 81.9522C30.4296 82.6456 30.2323 83.4082 30.2323 84.2402C30.2323 85.0616 30.4296 85.8189 30.8243 86.5122C31.2189 87.2056 31.7523 87.7549 32.4243 88.1602C33.0963 88.5656 33.8216 88.7682 34.6003 88.7682C35.5816 88.7576 36.4669 88.4482 37.2563 87.8402L35.7203 86.2402L36.7443 85.2482L38.1843 86.7842ZM28.8243 84.2402C28.8243 83.1629 29.0803 82.1709 29.5923 81.2642C30.1149 80.3469 30.8189 79.6216 31.7043 79.0882C32.5896 78.5442 33.5549 78.2722 34.6003 78.2722C35.6456 78.2722 36.6109 78.5442 37.4963 79.0882C38.3816 79.6216 39.0803 80.3469 39.5923 81.2642C40.1149 82.1709 40.3763 83.1629 40.3763 84.2402C40.3656 85.5522 39.9656 86.7522 39.1763 87.8402L40.4883 89.2002L39.4963 90.1922L38.2163 88.8482C37.1709 89.7442 35.9656 90.1922 34.6003 90.1922C33.5549 90.1922 32.5896 89.9256 31.7043 89.3922C30.8189 88.8482 30.1149 88.1229 29.5923 87.2162C29.0803 86.2989 28.8243 85.3069 28.8243 84.2402ZM43.919 86.5282C43.919 87.1256 44.1003 87.6216 44.463 88.0162C44.8257 88.4109 45.3323 88.6082 45.983 88.6082C46.4417 88.6082 46.8417 88.5176 47.183 88.3362C47.535 88.1442 47.8017 87.8936 47.983 87.5842C48.175 87.2642 48.2657 86.9176 48.255 86.5442V81.7602H49.679V90.0482H48.255V88.7362C47.9883 89.2162 47.663 89.5576 47.279 89.7602C46.9057 89.9522 46.4417 90.0482 45.887 90.0482C45.2577 90.0482 44.6817 89.9096 44.159 89.6322C43.647 89.3549 43.2417 88.9656 42.943 88.4642C42.6443 87.9522 42.495 87.3709 42.495 86.7202V81.8082H43.919V86.5282ZM55.4406 88.8002C55.8886 88.8002 56.3046 88.6776 56.6886 88.4322C57.0833 88.1869 57.398 87.8509 57.6326 87.4242C57.878 86.9976 58.0006 86.5282 58.0006 86.0162C58.0006 85.4936 57.878 85.0189 57.6326 84.5922C57.398 84.1656 57.0833 83.8296 56.6886 83.5842C56.3046 83.3389 55.8886 83.2162 55.4406 83.2162C54.982 83.2162 54.5553 83.3389 54.1606 83.5842C53.7766 83.8296 53.4673 84.1709 53.2326 84.6082C52.998 85.0349 52.8806 85.5042 52.8806 86.0162C52.8806 86.5282 52.998 86.9976 53.2326 87.4242C53.4673 87.8509 53.7766 88.1869 54.1606 88.4322C54.5553 88.6776 54.982 88.8002 55.4406 88.8002ZM51.4566 86.0162C51.4566 85.2696 51.6273 84.5816 51.9686 83.9522C52.3206 83.3122 52.7953 82.8056 53.3926 82.4322C54.0006 82.0482 54.662 81.8562 55.3766 81.8562C55.8673 81.8562 56.3473 81.9896 56.8166 82.2562C57.286 82.5122 57.6913 82.9016 58.0326 83.4242V81.8082H59.4406V90.0482H58.0326V88.5922C57.6806 89.1362 57.2753 89.5362 56.8166 89.7922C56.358 90.0482 55.878 90.1762 55.3766 90.1762C54.662 90.1762 54.006 89.9842 53.4086 89.6002C52.8113 89.2162 52.3366 88.7096 51.9846 88.0802C51.6326 87.4402 51.4566 86.7522 51.4566 86.0162ZM67.4581 85.3282C67.4581 84.7416 67.2768 84.2509 66.9141 83.8562C66.5515 83.4616 66.0448 83.2642 65.3941 83.2642C64.9675 83.2642 64.5781 83.3602 64.2261 83.5522C63.8741 83.7336 63.5968 83.9842 63.3941 84.3042C63.2021 84.6242 63.1061 84.9656 63.1061 85.3282V90.0482H61.6981V81.8082H63.1061V83.1362C63.6075 82.2509 64.4021 81.8082 65.4901 81.8082C66.1301 81.8082 66.7061 81.9522 67.2181 82.2402C67.7301 82.5176 68.1301 82.9122 68.4181 83.4242C68.7168 83.9256 68.8661 84.5069 68.8661 85.1682V90.0482H67.4581V85.3282ZM75.5759 89.4082C75.0959 89.8242 74.5625 90.0322 73.9759 90.0322C73.5599 90.0322 73.1705 89.9256 72.8079 89.7122C72.4452 89.4989 72.1572 89.2109 71.9439 88.8482C71.7305 88.4856 71.6239 88.0909 71.6239 87.6642V83.0082H70.2639V81.6642H71.6239V79.0722H73.0639V81.6642H75.0799V83.0082H73.0639V87.6642C73.0639 87.9629 73.1439 88.1922 73.3039 88.3522C73.4639 88.5122 73.6879 88.5922 73.9759 88.5922C74.1145 88.5922 74.2265 88.5762 74.3119 88.5442C74.3972 88.5016 74.4985 88.4269 74.6159 88.3202L75.5759 89.4082ZM78.4971 86.5282C78.4971 87.1256 78.6785 87.6216 79.0411 88.0162C79.4038 88.4109 79.9105 88.6082 80.5611 88.6082C81.0198 88.6082 81.4198 88.5176 81.7611 88.3362C82.1131 88.1442 82.3798 87.8936 82.5611 87.5842C82.7531 87.2642 82.8438 86.9176 82.8331 86.5442V81.7602H84.2571V90.0482H82.8331V88.7362C82.5665 89.2162 82.2411 89.5576 81.8571 89.7602C81.4838 89.9522 81.0198 90.0482 80.4651 90.0482C79.8358 90.0482 79.2598 89.9096 78.7371 89.6322C78.2251 89.3549 77.8198 88.9656 77.5211 88.4642C77.2225 87.9522 77.0731 87.3709 77.0731 86.7202V81.8082H78.4971V86.5282ZM97.1068 85.1682C97.1068 84.8482 97.0161 84.5389 96.8348 84.2402C96.6641 83.9416 96.4348 83.7069 96.1468 83.5362C95.8588 83.3549 95.5548 83.2642 95.2348 83.2642C94.6801 83.2642 94.1948 83.4402 93.7788 83.7922C93.3734 84.1336 93.1708 84.5922 93.1708 85.1682V90.0482H91.7788V85.1682C91.7788 84.6349 91.6188 84.1869 91.2988 83.8242C90.9788 83.4616 90.5254 83.2802 89.9388 83.2802C89.3414 83.2802 88.8454 83.4616 88.4508 83.8242C88.0561 84.1762 87.8588 84.6136 87.8588 85.1362V90.0482H86.4508V81.8082H87.8588V83.0562C88.3174 82.2242 89.0428 81.8082 90.0348 81.8082C90.6321 81.8082 91.1334 81.9469 91.5388 82.2242C91.9548 82.4909 92.3121 82.9016 92.6108 83.4562C92.9414 82.9869 93.3361 82.5976 93.7948 82.2882C94.2641 81.9682 94.7708 81.8082 95.3148 81.8082C95.8694 81.8082 96.3921 81.9469 96.8828 82.2242C97.3734 82.5016 97.7681 82.8856 98.0668 83.3762C98.3654 83.8669 98.5148 84.4216 98.5148 85.0402V90.0482H97.1068V85.1682ZM115.537 90.0642H114.017L112.657 86.8002H107.153L105.809 90.0642H104.289L109.153 78.3842H110.673L115.537 90.0642ZM112.065 85.3602L109.921 80.1442L107.745 85.3602H112.065ZM119.063 78.3842V90.0642H117.655V78.3842H119.063ZM33.5592 101.088V115.264H32.0712V101.088H33.5592ZM22.4552 107.12C22.4552 106.128 22.6099 105.259 22.9192 104.512C23.2285 103.766 23.6552 103.19 24.1992 102.784C24.7539 102.379 25.3779 102.176 26.0712 102.176C26.7645 102.176 27.3885 102.379 27.9432 102.784C28.4979 103.19 28.9299 103.766 29.2392 104.512C29.5485 105.259 29.7032 106.128 29.7032 107.12C29.7032 108.112 29.5485 108.982 29.2392 109.728C28.9299 110.475 28.4979 111.056 27.9432 111.472C27.3885 111.878 26.7645 112.08 26.0712 112.08C25.3779 112.08 24.7539 111.878 24.1992 111.472C23.6552 111.067 23.2285 110.491 22.9192 109.744C22.6099 108.987 22.4552 108.112 22.4552 107.12ZM23.8792 107.12C23.8792 108.24 24.0819 109.131 24.4872 109.792C24.8925 110.443 25.4205 110.768 26.0712 110.768C26.7325 110.768 27.2659 110.443 27.6712 109.792C28.0765 109.131 28.2792 108.24 28.2792 107.12C28.2792 106.011 28.0765 105.131 27.6712 104.48C27.2659 103.83 26.7325 103.504 26.0712 103.504C25.4205 103.504 24.8925 103.83 24.4872 104.48C24.0819 105.131 23.8792 106.011 23.8792 107.12ZM43.2876 102.464V111.728H36.7276V102.464H43.2876ZM41.8636 110.544V103.648H38.1676V110.544H41.8636ZM46.0556 101.088H47.5276V115.264H46.0556V101.088ZM58.3119 102.528V103.76H55.0959V105.296C55.0959 106.075 55.2559 106.848 55.5759 107.616C55.8959 108.384 56.3333 109.067 56.8879 109.664C57.4533 110.262 58.0879 110.715 58.7919 111.024L57.9599 112.192C57.1493 111.83 56.4293 111.275 55.7999 110.528C55.1706 109.782 54.6906 108.934 54.3599 107.984C54.0399 109.008 53.5599 109.926 52.9199 110.736C52.2906 111.547 51.5759 112.15 50.7759 112.544L49.9279 111.376C50.6213 111.056 51.2453 110.571 51.7999 109.92C52.3653 109.27 52.8079 108.539 53.1279 107.728C53.4479 106.907 53.6079 106.096 53.6079 105.296V103.76H50.4079V102.528H58.3119ZM60.0559 101.12H61.5279V115.248H60.0559V101.12ZM80.3678 108.496V109.696H74.8318V112.304H73.3598V109.696H67.5838V108.496H80.3678ZM69.1838 111.104H70.6398V113.728H78.9598V114.944H69.1838V111.104ZM69.2638 101.568H70.7198V103.264H77.2478V101.568H78.7198V107.232H69.2638V101.568ZM77.2478 106.08V104.416H70.7198V106.08H77.2478ZM92.5762 101.088V104.384H94.6082V105.584H92.5762V108.832H91.1042V101.088H92.5762ZM81.6162 102.32H85.0242V100.976H86.5122V102.32H89.9522V103.456H81.6162V102.32ZM82.3682 106.336C82.3682 105.622 82.6775 105.056 83.2962 104.64C83.9149 104.224 84.7415 104.016 85.7762 104.016C86.8002 104.016 87.6215 104.23 88.2402 104.656C88.8695 105.072 89.1842 105.632 89.1842 106.336C89.1842 107.04 88.8749 107.6 88.2562 108.016C87.6375 108.432 86.8109 108.64 85.7762 108.64C84.7415 108.64 83.9149 108.432 83.2962 108.016C82.6775 107.6 82.3682 107.04 82.3682 106.336ZM83.5202 109.52H92.5762V112.768H85.0082V113.968H93.0402V115.104H83.5522V111.712H91.1202V110.608H83.5202V109.52ZM83.7762 106.336C83.7762 106.72 83.9522 107.024 84.3042 107.248C84.6669 107.472 85.1575 107.584 85.7762 107.584C86.3735 107.584 86.8535 107.472 87.2162 107.248C87.5789 107.024 87.7602 106.72 87.7602 106.336C87.7602 105.952 87.5789 105.654 87.2162 105.44C86.8642 105.216 86.3842 105.104 85.7762 105.104C85.1575 105.104 84.6669 105.216 84.3042 105.44C83.9522 105.654 83.7762 105.952 83.7762 106.336ZM110.856 101.12V111.392H109.384V101.12H110.856ZM99.5601 105.584C99.5601 104.912 99.7201 104.31 100.04 103.776C100.371 103.243 100.819 102.827 101.384 102.528C101.949 102.23 102.579 102.08 103.272 102.08C103.976 102.08 104.611 102.23 105.176 102.528C105.741 102.827 106.184 103.243 106.504 103.776C106.835 104.31 107 104.912 107 105.584C107 106.256 106.835 106.859 106.504 107.392C106.184 107.926 105.741 108.342 105.176 108.64C104.611 108.939 103.976 109.088 103.272 109.088C102.579 109.088 101.949 108.939 101.384 108.64C100.819 108.342 100.371 107.926 100.04 107.392C99.7201 106.859 99.5601 106.256 99.5601 105.584ZM101 105.584C101 106.246 101.213 106.784 101.64 107.2C102.077 107.606 102.621 107.808 103.272 107.808C103.933 107.808 104.477 107.606 104.904 107.2C105.341 106.784 105.56 106.246 105.56 105.584C105.56 104.923 105.341 104.39 104.904 103.984C104.477 103.568 103.933 103.36 103.272 103.36C102.621 103.36 102.077 103.568 101.64 103.984C101.213 104.39 101 104.923 101 105.584ZM101.736 110.352H103.192V113.728H111.288V114.944H101.736V110.352ZM118.328 101.776V103.152C118.328 104.144 118.643 105.051 119.272 105.872C119.902 106.683 120.744 107.27 121.8 107.632L121.08 108.784C120.27 108.507 119.566 108.091 118.968 107.536C118.382 106.982 117.928 106.331 117.608 105.584C117.299 106.384 116.84 107.088 116.232 107.696C115.624 108.304 114.904 108.758 114.072 109.056L113.336 107.872C114.414 107.488 115.267 106.864 115.896 106C116.526 105.136 116.84 104.187 116.84 103.152V101.776H118.328ZM115.4 110.272H124.856V115.248H123.384V111.472H115.4V110.272ZM123.384 101.12H124.856V109.6H123.384V101.12ZM57.5475 132.272V133.456H52.0115V136.192H50.5395V133.456H44.7635V132.272H57.5475ZM46.3635 134.88H47.8195V137.728H56.1395V138.944H46.3635V134.88ZM46.3955 125.76H55.8995V130.8H46.3955V125.76ZM54.4435 129.616V126.928H47.8355V129.616H54.4435ZM66.6679 126.528V127.76H63.6279V129.296C63.6279 130.032 63.7772 130.779 64.0759 131.536C64.3852 132.294 64.8119 132.982 65.3559 133.6C65.8999 134.219 66.5185 134.694 67.2119 135.024L66.3799 136.192C65.6012 135.808 64.9079 135.243 64.2999 134.496C63.7025 133.75 63.2439 132.907 62.9239 131.968C62.6039 132.982 62.1292 133.899 61.4999 134.72C60.8705 135.531 60.1612 136.139 59.3719 136.544L58.5079 135.376C59.1905 135.046 59.8092 134.555 60.3639 133.904C60.9292 133.243 61.3719 132.507 61.6919 131.696C62.0119 130.886 62.1719 130.086 62.1719 129.296V127.76H59.0359V126.528H66.6679ZM68.1879 125.12H69.6599V130.736H71.8999V131.968H69.6599V139.248H68.1879V125.12ZM89.2038 133.632V134.848H83.5398V139.264H82.0838V134.848H76.4358V133.632H89.2038ZM77.1878 131.472C78.0624 131.355 78.8678 131.126 79.6038 130.784C80.3398 130.432 80.9264 130.016 81.3638 129.536C81.8118 129.046 82.0464 128.534 82.0678 128H77.6518V126.832H82.0838V125.12H83.5398V126.832H87.9718V128H83.5398C83.5611 128.523 83.7904 129.03 84.2278 129.52C84.6758 130.011 85.2678 130.432 86.0038 130.784C86.7398 131.126 87.5451 131.355 88.4198 131.472L87.8918 132.64C86.7611 132.491 85.7424 132.166 84.8358 131.664C83.9398 131.152 83.2678 130.534 82.8198 129.808C82.3611 130.544 81.6784 131.163 80.7718 131.664C79.8758 132.166 78.8624 132.491 77.7318 132.64L77.1878 131.472ZM103.156 131.328V132.432H97.5081V133.6H101.572V136.8H93.4281V137.984H101.972V139.088H91.9881V135.776H100.116V134.704H91.9401V133.6H96.0521V132.432H90.4361V131.328H103.156ZM91.0601 129.648C92.4255 129.563 93.5508 129.323 94.4361 128.928C95.3215 128.534 95.8335 128.032 95.9721 127.424H91.7161V126.304H96.0681V125.056H97.5241V126.304H101.892V127.424H97.6361C97.7748 128.032 98.2815 128.534 99.1561 128.928C100.031 129.323 101.151 129.563 102.516 129.648L102.1 130.736C100.863 130.651 99.7748 130.432 98.8361 130.08C97.8975 129.718 97.2148 129.238 96.7881 128.64C96.3615 129.238 95.6841 129.718 94.7561 130.08C93.8281 130.432 92.7401 130.651 91.4921 130.736L91.0601 129.648Z" fill="#212121"/>
<rect x="0.5" y="0.500244" width="147" height="215" rx="1.5" stroke="#BDBDBD"/>
</svg>
