<svg width="274" height="216" viewBox="0 0 274 216" fill="none" xmlns="http://www.w3.org/2000/svg">
<rect x="0.5" y="0.500244" width="273" height="215" rx="1.5" fill="white"/>
<path d="M72.6071 26.3842C72.6071 25.0936 72.9271 23.8989 73.5671 22.8002C74.2178 21.7016 75.0925 20.8322 76.1911 20.1922C77.2898 19.5416 78.4845 19.2162 79.7751 19.2162C81.0658 19.2162 82.2605 19.5416 83.3591 20.1922C84.4578 20.8322 85.3271 21.7016 85.9671 22.8002C86.6178 23.8989 86.9431 25.0936 86.9431 26.3842C86.9431 27.6749 86.6178 28.8696 85.9671 29.9682C85.3271 31.0562 84.4578 31.9202 83.3591 32.5602C82.2605 33.2109 81.0658 33.5362 79.7751 33.5362C78.4845 33.5362 77.2898 33.2109 76.1911 32.5602C75.0925 31.9202 74.2178 31.0562 73.5671 29.9682C72.9271 28.8696 72.6071 27.6749 72.6071 26.3842ZM73.9351 26.3842C73.9351 27.4296 74.1965 28.4002 74.7191 29.2962C75.2418 30.1922 75.9511 30.9069 76.8471 31.4402C77.7431 31.9629 78.7191 32.2242 79.7751 32.2242C80.8311 32.2242 81.8071 31.9629 82.7031 31.4402C83.5991 30.9069 84.3085 30.1922 84.8311 29.2962C85.3538 28.4002 85.6151 27.4296 85.6151 26.3842C85.6151 25.3282 85.3538 24.3522 84.8311 23.4562C84.3085 22.5602 83.5991 21.8509 82.7031 21.3282C81.8071 20.8056 80.8311 20.5442 79.7751 20.5442C78.7191 20.5442 77.7431 20.8056 76.8471 21.3282C75.9511 21.8509 75.2418 22.5602 74.7191 23.4562C74.1965 24.3522 73.9351 25.3282 73.9351 26.3842ZM80.5751 21.9842L80.3991 28.2722H79.1511L78.9911 21.9842H80.5751ZM79.0711 29.4242H80.5111V30.8162H79.0711V29.4242ZM102.758 19.1202V22.0802H104.774V23.2802H102.758V26.2722H101.286V19.1202H102.758ZM91.9744 22.7682C91.9744 22.1496 92.1344 21.6002 92.4544 21.1202C92.7744 20.6402 93.2117 20.2669 93.7664 20.0002C94.3317 19.7336 94.961 19.6002 95.6544 19.6002C96.3584 19.6002 96.9877 19.7336 97.5424 20.0002C98.097 20.2669 98.529 20.6402 98.8384 21.1202C99.1584 21.6002 99.3184 22.1496 99.3184 22.7682C99.3184 23.3762 99.1584 23.9202 98.8384 24.4002C98.529 24.8696 98.097 25.2376 97.5424 25.5042C96.9877 25.7709 96.3584 25.9042 95.6544 25.9042C94.961 25.9042 94.3317 25.7709 93.7664 25.5042C93.2117 25.2376 92.7744 24.8696 92.4544 24.4002C92.1344 23.9202 91.9744 23.3762 91.9744 22.7682ZM93.3984 22.7682C93.3984 23.3442 93.6117 23.8136 94.0384 24.1762C94.465 24.5282 95.0037 24.7042 95.6544 24.7042C96.305 24.7042 96.8384 24.5282 97.2544 24.1762C97.681 23.8136 97.8944 23.3442 97.8944 22.7682C97.8944 22.1816 97.681 21.7069 97.2544 21.3442C96.8384 20.9816 96.305 20.8002 95.6544 20.8002C95.0037 20.8002 94.465 20.9816 94.0384 21.3442C93.6117 21.7069 93.3984 22.1816 93.3984 22.7682ZM93.7024 26.9122H102.758V30.4642H95.1744V31.8722H103.222V33.0402H93.7344V29.3762H101.302V28.0642H93.7024V26.9122ZM116.583 20.4802V21.8562C116.583 23.0616 116.551 24.1442 116.487 25.1042C116.433 26.0642 116.289 27.1842 116.055 28.4642L114.583 28.2882C114.817 27.0829 114.961 26.0056 115.015 25.0562C115.079 24.1069 115.111 23.0402 115.111 21.8562V21.6802H106.615V20.4802H116.583ZM105.271 30.1282H110.119V25.1202H111.607V30.1282H118.039V31.3282H105.271V30.1282ZM130.391 19.0882V33.2642H128.919V19.0882H130.391ZM119.559 20.3842H126.119V25.5522H121.079V28.6562C122.316 28.6562 123.452 28.6242 124.487 28.5602C125.522 28.4856 126.588 28.3522 127.687 28.1602L127.831 29.3602C126.668 29.5522 125.538 29.6856 124.439 29.7602C123.34 29.8349 122.119 29.8722 120.775 29.8722H119.591V24.3522H124.631V21.6002H119.559V20.3842ZM143.896 19.7282V20.8962H139.656C139.698 21.3549 139.933 21.7869 140.36 22.1922C140.786 22.5976 141.346 22.9389 142.04 23.2162C142.744 23.4936 143.522 23.6696 144.376 23.7442L143.848 24.9122C142.621 24.7736 141.544 24.4589 140.616 23.9682C139.688 23.4669 139.037 22.8429 138.664 22.0962C138.28 22.8429 137.624 23.4669 136.696 23.9682C135.768 24.4589 134.696 24.7736 133.48 24.9122L132.952 23.7442C133.794 23.6696 134.568 23.4989 135.272 23.2322C135.976 22.9549 136.541 22.6136 136.968 22.2082C137.405 21.8029 137.645 21.3656 137.688 20.8962H133.448V19.7282H143.896ZM132.28 25.6642H145.048V26.8642H132.28V25.6642ZM133.832 28.2402H143.496V33.0402H133.832V28.2402ZM142.04 31.8722V29.4242H135.256V31.8722H142.04ZM161.759 25.6802V26.8642H156.079V28.2242C157.391 28.2989 158.405 28.5549 159.119 28.9922C159.845 29.4189 160.207 29.9949 160.207 30.7202C160.207 31.5096 159.781 32.1176 158.927 32.5442C158.074 32.9816 156.885 33.2002 155.359 33.2002C153.834 33.2002 152.645 32.9816 151.791 32.5442C150.938 32.1176 150.511 31.5096 150.511 30.7202C150.511 29.9842 150.869 29.4029 151.583 28.9762C152.309 28.5496 153.322 28.2989 154.623 28.2242V26.8642H148.991V25.6802H161.759ZM149.663 23.7282C150.495 23.6536 151.258 23.4829 151.951 23.2162C152.655 22.9389 153.221 22.6029 153.647 22.2082C154.085 21.8136 154.335 21.3869 154.399 20.9282H150.159V19.7442H160.607V20.9282H156.367C156.431 21.3869 156.677 21.8189 157.103 22.2242C157.53 22.6189 158.09 22.9496 158.783 23.2162C159.477 23.4829 160.245 23.6536 161.087 23.7282L160.559 24.8962C159.333 24.7576 158.255 24.4429 157.327 23.9522C156.399 23.4509 155.749 22.8269 155.375 22.0802C154.991 22.8269 154.335 23.4509 153.407 23.9522C152.479 24.4429 151.407 24.7576 150.191 24.8962L149.663 23.7282ZM151.983 30.7202C151.983 31.1576 152.277 31.4936 152.863 31.7282C153.45 31.9522 154.282 32.0642 155.359 32.0642C156.426 32.0642 157.247 31.9522 157.823 31.7282C158.41 31.4936 158.703 31.1576 158.703 30.7202C158.703 30.2722 158.41 29.9362 157.823 29.7122C157.247 29.4776 156.426 29.3602 155.359 29.3602C154.282 29.3602 153.45 29.4776 152.863 29.7122C152.277 29.9362 151.983 30.2722 151.983 30.7202ZM165.552 30.2722V26.5442C164.965 26.2242 164.512 25.8189 164.192 25.3282C163.872 24.8269 163.712 24.2669 163.712 23.6482C163.712 22.9122 163.93 22.2669 164.368 21.7122C164.805 21.1576 165.413 20.7309 166.192 20.4322C166.981 20.1229 167.872 19.9682 168.864 19.9682C169.866 19.9682 170.757 20.1229 171.536 20.4322C172.325 20.7309 172.938 21.1576 173.376 21.7122C173.824 22.2669 174.048 22.9122 174.048 23.6482C174.048 24.2669 173.888 24.8269 173.568 25.3282C173.248 25.8189 172.794 26.2242 172.208 26.5442V30.2722H175.28V31.4882H162.496V30.2722H165.552ZM165.136 23.6482C165.136 24.1496 165.29 24.5869 165.6 24.9602C165.92 25.3336 166.362 25.6269 166.928 25.8402C167.493 26.0429 168.138 26.1442 168.864 26.1442C169.589 26.1442 170.234 26.0429 170.8 25.8402C171.365 25.6376 171.802 25.3496 172.112 24.9762C172.432 24.5922 172.592 24.1496 172.592 23.6482C172.592 23.1469 172.432 22.7042 172.112 22.3202C171.802 21.9362 171.365 21.6429 170.8 21.4402C170.234 21.2269 169.589 21.1202 168.864 21.1202C168.138 21.1202 167.493 21.2269 166.928 21.4402C166.362 21.6429 165.92 21.9362 165.6 22.3202C165.29 22.7042 165.136 23.1469 165.136 23.6482ZM170.752 30.2722V27.0882C170.133 27.2269 169.504 27.2962 168.864 27.2962C168.17 27.2962 167.552 27.2269 167.008 27.0882V30.2722H170.752ZM180.848 20.2882V22.7202C180.848 23.5522 180.997 24.3736 181.296 25.1842C181.595 25.9842 182.005 26.7042 182.528 27.3442C183.061 27.9842 183.664 28.4749 184.336 28.8162L183.456 29.9842C182.709 29.5896 182.048 29.0189 181.472 28.2722C180.896 27.5256 180.448 26.6722 180.128 25.7122C179.808 26.7362 179.344 27.6482 178.736 28.4482C178.139 29.2376 177.451 29.8402 176.672 30.2562L175.776 29.0562C176.48 28.7149 177.104 28.2136 177.648 27.5522C178.203 26.8802 178.629 26.1229 178.928 25.2802C179.237 24.4376 179.392 23.5842 179.392 22.7202V20.2882H180.848ZM185.424 19.1202H186.896V24.7522H189.136V26.0002H186.896V33.2482H185.424V19.1202ZM200.496 19.1202V22.9602H202.512V24.1762H200.496V28.1762H199.024V19.1202H200.496ZM189.536 20.6402H192.944V18.9922H194.432V20.6402H197.872V21.8082H189.536V20.6402ZM190.288 24.9602C190.288 24.2136 190.598 23.6162 191.216 23.1682C191.846 22.7096 192.672 22.4802 193.696 22.4802C194.71 22.4802 195.531 22.7096 196.16 23.1682C196.79 23.6162 197.104 24.2136 197.104 24.9602C197.104 25.4616 196.96 25.9042 196.672 26.2882C196.384 26.6616 195.984 26.9549 195.472 27.1682C194.96 27.3709 194.368 27.4722 193.696 27.4722C192.672 27.4722 191.846 27.2429 191.216 26.7842C190.598 26.3256 190.288 25.7176 190.288 24.9602ZM191.392 30.7522C191.392 29.9842 191.803 29.3816 192.624 28.9442C193.456 28.5069 194.587 28.2882 196.016 28.2882C197.456 28.2882 198.587 28.5069 199.408 28.9442C200.24 29.3816 200.656 29.9842 200.656 30.7522C200.656 31.5202 200.24 32.1229 199.408 32.5602C198.587 32.9976 197.456 33.2162 196.016 33.2162C194.576 33.2162 193.446 32.9976 192.624 32.5602C191.803 32.1229 191.392 31.5202 191.392 30.7522ZM191.696 24.9602C191.696 25.3976 191.878 25.7389 192.24 25.9842C192.603 26.2296 193.088 26.3522 193.696 26.3522C194.294 26.3522 194.774 26.2296 195.136 25.9842C195.499 25.7389 195.68 25.3976 195.68 24.9602C195.68 24.5336 195.499 24.1976 195.136 23.9522C194.774 23.6962 194.294 23.5682 193.696 23.5682C193.099 23.5682 192.614 23.6962 192.24 23.9522C191.878 24.1976 191.696 24.5336 191.696 24.9602ZM192.832 30.7522C192.832 31.1896 193.11 31.5256 193.664 31.7602C194.219 31.9842 195.003 32.0962 196.016 32.0962C197.03 32.0962 197.814 31.9842 198.368 31.7602C198.923 31.5256 199.2 31.1896 199.2 30.7522C199.2 30.3362 198.918 30.0162 198.352 29.7922C197.798 29.5576 197.019 29.4402 196.016 29.4402C195.014 29.4402 194.23 29.5576 193.664 29.7922C193.11 30.0162 192.832 30.3362 192.832 30.7522Z" fill="#212121"/>
<path d="M73.7471 72.8142V84.9942H72.8791V72.8142H73.7471ZM64.3391 77.9802C64.3391 77.1496 64.4697 76.4169 64.7311 75.7822C64.9924 75.1476 65.3517 74.6576 65.8091 74.3122C66.2757 73.9669 66.8031 73.7942 67.3911 73.7942C67.9791 73.7942 68.5017 73.9669 68.9591 74.3122C69.4257 74.6576 69.7897 75.1476 70.0511 75.7822C70.3124 76.4169 70.4431 77.1496 70.4431 77.9802C70.4431 78.8202 70.3124 79.5622 70.0511 80.2062C69.7897 80.8409 69.4257 81.3309 68.9591 81.6762C68.5017 82.0216 67.9791 82.1942 67.3911 82.1942C66.8031 82.1942 66.2757 82.0216 65.8091 81.6762C65.3517 81.3309 64.9924 80.8409 64.7311 80.2062C64.4697 79.5622 64.3391 78.8202 64.3391 77.9802ZM65.1791 77.9802C65.1791 78.6616 65.2724 79.2636 65.4591 79.7862C65.6457 80.3089 65.9071 80.7149 66.2431 81.0042C66.5791 81.2936 66.9617 81.4382 67.3911 81.4382C67.8204 81.4382 68.2031 81.2936 68.5391 81.0042C68.8751 80.7149 69.1364 80.3089 69.3231 79.7862C69.5191 79.2542 69.6171 78.6522 69.6171 77.9802C69.6171 77.3082 69.5191 76.7156 69.3231 76.2022C69.1364 75.6796 68.8751 75.2736 68.5391 74.9842C68.2031 74.6949 67.8204 74.5502 67.3911 74.5502C66.9617 74.5502 66.5791 74.6949 66.2431 74.9842C65.9071 75.2736 65.6457 75.6796 65.4591 76.2022C65.2724 76.7156 65.1791 77.3082 65.1791 77.9802ZM82.3014 74.0462V81.8582H76.8134V74.0462H82.3014ZM81.4754 81.1582V74.7602H77.6534V81.1582H81.4754ZM85.1154 72.8142H85.9694V84.9942H85.1154V72.8142ZM95.5177 74.0882V74.8302H92.5357V76.7062C92.5357 77.3782 92.6944 78.0502 93.0117 78.7222C93.3291 79.3849 93.7444 79.9776 94.2577 80.5002C94.7711 81.0136 95.3124 81.3962 95.8817 81.6482L95.3777 82.3342C94.6684 81.9889 94.0151 81.4709 93.4177 80.7802C92.8204 80.0802 92.3864 79.3056 92.1157 78.4562C91.8451 79.3616 91.4111 80.1922 90.8137 80.9482C90.2257 81.7042 89.5817 82.2689 88.8817 82.6422L88.3777 81.9422C88.9284 81.6716 89.4557 81.2562 89.9597 80.6962C90.4731 80.1269 90.8884 79.4922 91.2057 78.7922C91.5231 78.0829 91.6817 77.3876 91.6817 76.7062V74.8302H88.7277V74.0882H95.5177ZM97.3657 72.8142H98.2197V84.9942H97.3657V72.8142ZM114.789 79.1142V79.8282H109.763V82.4602H108.909V79.8282H103.771V79.1142H114.789ZM105.213 81.2422H106.067V83.9722H113.557V84.7002H105.213V81.2422ZM105.213 73.4162H113.347V77.5882H105.213V73.4162ZM112.507 76.8882V74.1022H106.053V76.8882H112.507ZM125.121 77.0842V72.8142H125.961V84.9942H125.121V77.7982H122.083V77.0842H125.121ZM116.077 81.6762C116.637 81.3869 117.164 80.9576 117.659 80.3882C118.154 79.8189 118.55 79.1702 118.849 78.4422C119.148 77.7142 119.297 76.9862 119.297 76.2582V73.9062H120.165V76.2582C120.165 76.9582 120.314 77.6582 120.613 78.3582C120.921 79.0489 121.322 79.6696 121.817 80.2202C122.312 80.7709 122.834 81.1816 123.385 81.4522L122.881 82.1382C122.19 81.7742 121.56 81.2329 120.991 80.5142C120.422 79.7862 120.006 78.9836 119.745 78.1062C119.493 79.0302 119.082 79.8749 118.513 80.6402C117.944 81.4056 117.314 81.9796 116.623 82.3622L116.077 81.6762ZM141.76 72.8142V84.9942H140.92V78.6102H138.96V84.3362H138.134V73.1082H138.96V77.8682H140.92V72.8142H141.76ZM132.114 74.3402H132.982V81.0042C134.391 81.0042 135.791 80.8689 137.182 80.5982L137.294 81.3682C136.519 81.5176 135.782 81.6202 135.082 81.6762C134.382 81.7229 133.645 81.7462 132.87 81.7462H132.114V74.3402ZM147.696 73.7242C148.321 73.7242 148.877 73.8456 149.362 74.0882C149.847 74.3216 150.225 74.6529 150.496 75.0822C150.776 75.5022 150.916 75.9876 150.916 76.5382C150.916 77.0982 150.781 77.5929 150.51 78.0222C150.239 78.4422 149.857 78.7689 149.362 79.0022C148.877 79.2356 148.321 79.3522 147.696 79.3522C147.071 79.3522 146.511 79.2356 146.016 79.0022C145.531 78.7689 145.148 78.4422 144.868 78.0222C144.597 77.5929 144.462 77.0982 144.462 76.5382C144.462 75.9876 144.597 75.5022 144.868 75.0822C145.148 74.6529 145.531 74.3216 146.016 74.0882C146.511 73.8456 147.071 73.7242 147.696 73.7242ZM143.804 81.5082C145.391 81.5082 146.833 81.4849 148.13 81.4382C149.427 81.3822 150.664 81.2656 151.84 81.0882L151.924 81.7182C150.711 81.9516 149.474 82.1009 148.214 82.1662C146.963 82.2222 145.535 82.2502 143.93 82.2502L143.804 81.5082ZM145.316 76.5382C145.316 76.9396 145.419 77.2989 145.624 77.6162C145.829 77.9242 146.109 78.1716 146.464 78.3582C146.828 78.5356 147.239 78.6242 147.696 78.6242C148.153 78.6242 148.559 78.5356 148.914 78.3582C149.278 78.1716 149.563 77.9242 149.768 77.6162C149.973 77.2989 150.076 76.9396 150.076 76.5382C150.076 75.9409 149.852 75.4509 149.404 75.0682C148.956 74.6762 148.387 74.4802 147.696 74.4802C147.005 74.4802 146.436 74.6762 145.988 75.0682C145.54 75.4509 145.316 75.9409 145.316 76.5382ZM152.694 72.8142H153.548V84.9942H152.694V72.8142ZM168.255 75.8102V72.8282H169.123V81.9702H168.255V76.5382H165.441V75.8102H168.255ZM159.253 79.4502C159.832 79.2262 160.354 78.8949 160.821 78.4562C161.297 78.0176 161.67 77.5089 161.941 76.9302C162.212 76.3516 162.347 75.7496 162.347 75.1242V73.5562H163.201V75.1662C163.201 75.7356 163.332 76.2909 163.593 76.8322C163.864 77.3642 164.228 77.8356 164.685 78.2462C165.152 78.6569 165.67 78.9696 166.239 79.1842L165.777 79.8702C165.096 79.5902 164.489 79.1796 163.957 78.6382C163.425 78.0969 163.033 77.4856 162.781 76.8042C162.529 77.5602 162.132 78.2276 161.591 78.8062C161.05 79.3849 160.42 79.8282 159.701 80.1362L159.253 79.4502ZM161.409 80.9202H162.263V83.9722H169.417V84.7002H161.409V80.9202ZM175.395 73.7242C176.021 73.7242 176.576 73.8456 177.061 74.0882C177.547 74.3216 177.925 74.6529 178.195 75.0822C178.475 75.5022 178.615 75.9876 178.615 76.5382C178.615 77.0982 178.48 77.5929 178.209 78.0222C177.939 78.4422 177.556 78.7689 177.061 79.0022C176.576 79.2356 176.021 79.3522 175.395 79.3522C174.77 79.3522 174.21 79.2356 173.715 79.0022C173.23 78.7689 172.847 78.4422 172.567 78.0222C172.297 77.5929 172.161 77.0982 172.161 76.5382C172.161 75.9876 172.297 75.5022 172.567 75.0822C172.847 74.6529 173.23 74.3216 173.715 74.0882C174.21 73.8456 174.77 73.7242 175.395 73.7242ZM171.503 81.5082C173.09 81.5082 174.532 81.4849 175.829 81.4382C177.127 81.3822 178.363 81.2656 179.539 81.0882L179.623 81.7182C178.41 81.9516 177.173 82.1009 175.913 82.1662C174.663 82.2222 173.235 82.2502 171.629 82.2502L171.503 81.5082ZM173.015 76.5382C173.015 76.9396 173.118 77.2989 173.323 77.6162C173.529 77.9242 173.809 78.1716 174.163 78.3582C174.527 78.5356 174.938 78.6242 175.395 78.6242C175.853 78.6242 176.259 78.5356 176.613 78.3582C176.977 78.1716 177.262 77.9242 177.467 77.6162C177.673 77.2989 177.775 76.9396 177.775 76.5382C177.775 75.9409 177.551 75.4509 177.103 75.0682C176.655 74.6762 176.086 74.4802 175.395 74.4802C174.705 74.4802 174.135 74.6762 173.687 75.0682C173.239 75.4509 173.015 75.9409 173.015 76.5382ZM180.393 72.8142H181.247V84.9942H180.393V72.8142ZM197.886 79.3102V80.0382H192.86V82.5582H192.006V80.0382H186.868V79.3102H197.886ZM188.31 81.4102H189.164V83.9722H196.654V84.7002H188.31V81.4102ZM188.352 73.2062H189.206V74.8722H195.562V73.2062H196.43V78.0082H188.352V73.2062ZM195.562 77.3082V75.5582H189.206V77.3082H195.562ZM204.159 82.6982V79.6742H200.141V78.9602H202.115V74.7742H200.127V74.0462H209.059V74.7742H207.071V78.9602H209.045V79.6742H204.999V82.6982H210.137V83.4262H199.119V82.6982H204.159ZM206.217 78.9602V74.7742H202.969V78.9602H206.217Z" fill="#212121"/>
<rect x="16.5" y="64.5002" width="241" height="29" rx="12.5" stroke="#BDBDBD"/>
<path d="M46.2447 113.114V113.828H41.2187V116.46H40.3647V113.828H35.2267V113.114H46.2447ZM36.6687 115.242H37.5227V117.972H45.0127V118.7H36.6687V115.242ZM36.6687 107.416H44.8027V111.588H36.6687V107.416ZM43.9627 110.888V108.102H37.5087V110.888H43.9627ZM56.577 111.084V106.814H57.417V118.994H56.577V111.798H53.539V111.084H56.577ZM47.533 115.676C48.093 115.387 48.6203 114.958 49.115 114.388C49.6097 113.819 50.0063 113.17 50.305 112.442C50.6037 111.714 50.753 110.986 50.753 110.258V107.906H51.621V110.258C51.621 110.958 51.7703 111.658 52.069 112.358C52.377 113.049 52.7783 113.67 53.273 114.22C53.7677 114.771 54.2903 115.182 54.841 115.452L54.337 116.138C53.6463 115.774 53.0163 115.233 52.447 114.514C51.8777 113.786 51.4623 112.984 51.201 112.106C50.949 113.03 50.5383 113.875 49.969 114.64C49.3997 115.406 48.7697 115.98 48.079 116.362L47.533 115.676ZM73.9579 113.8V114.528H70.9339V118.98H70.0659V114.528H66.7899V118.98H65.9079V114.528H62.9259V113.8H73.9579ZM64.2279 109.964C64.2279 109.432 64.4006 108.97 64.7459 108.578C65.1006 108.177 65.5906 107.869 66.2159 107.654C66.8506 107.44 67.5832 107.332 68.4139 107.332C69.2446 107.332 69.9772 107.44 70.6119 107.654C71.2466 107.869 71.7366 108.177 72.0819 108.578C72.4366 108.97 72.6139 109.432 72.6139 109.964C72.6139 110.487 72.4366 110.949 72.0819 111.35C71.7366 111.742 71.2466 112.046 70.6119 112.26C69.9772 112.475 69.2446 112.582 68.4139 112.582C67.5832 112.582 66.8506 112.475 66.2159 112.26C65.5906 112.046 65.1006 111.742 64.7459 111.35C64.4006 110.949 64.2279 110.487 64.2279 109.964ZM65.0959 109.964C65.0959 110.338 65.2359 110.669 65.5159 110.958C65.7959 111.248 66.1879 111.472 66.6919 111.63C67.1959 111.789 67.7699 111.868 68.4139 111.868C69.0672 111.868 69.6459 111.789 70.1499 111.63C70.6539 111.472 71.0459 111.248 71.3259 110.958C71.6059 110.669 71.7459 110.338 71.7459 109.964C71.7459 109.582 71.6059 109.246 71.3259 108.956C71.0459 108.658 70.6539 108.429 70.1499 108.27C69.6459 108.102 69.0672 108.018 68.4139 108.018C67.7699 108.018 67.1959 108.102 66.6919 108.27C66.1879 108.429 65.7959 108.658 65.5159 108.956C65.2359 109.246 65.0959 109.582 65.0959 109.964ZM84.2622 109.838V106.814H85.1302V114.71H84.2622V112.904H82.0082V112.19H84.2622V110.552H82.0082V109.838H84.2622ZM75.1902 108.256H78.2422V106.702H79.0962V108.256H82.0782V108.956H75.1902V108.256ZM75.9322 111.91C75.9322 111.238 76.1842 110.697 76.6882 110.286C77.1922 109.876 77.8502 109.67 78.6622 109.67C79.4649 109.67 80.1136 109.876 80.6082 110.286C81.1122 110.697 81.3642 111.238 81.3642 111.91C81.3642 112.582 81.1122 113.128 80.6082 113.548C80.1136 113.959 79.4649 114.164 78.6622 114.164C77.8502 114.164 77.1922 113.959 76.6882 113.548C76.1842 113.128 75.9322 112.582 75.9322 111.91ZM76.7582 111.91C76.7582 112.377 76.9309 112.76 77.2762 113.058C77.6309 113.348 78.0929 113.492 78.6622 113.492C79.2222 113.492 79.6749 113.348 80.0202 113.058C80.3749 112.76 80.5522 112.377 80.5522 111.91C80.5522 111.453 80.3749 111.08 80.0202 110.79C79.6749 110.501 79.2222 110.356 78.6622 110.356C78.0929 110.356 77.6309 110.501 77.2762 110.79C76.9309 111.07 76.7582 111.444 76.7582 111.91ZM77.1782 116.908C77.1782 116.255 77.5329 115.746 78.2422 115.382C78.9516 115.018 79.9362 114.836 81.1962 114.836C82.4469 114.836 83.4269 115.018 84.1362 115.382C84.8456 115.746 85.2002 116.255 85.2002 116.908C85.2002 117.552 84.8456 118.052 84.1362 118.406C83.4269 118.77 82.4469 118.952 81.1962 118.952C79.9362 118.952 78.9516 118.77 78.2422 118.406C77.5329 118.052 77.1782 117.552 77.1782 116.908ZM78.0602 116.908C78.0602 117.328 78.3402 117.66 78.9002 117.902C79.4696 118.145 80.2349 118.266 81.1962 118.266C82.1576 118.266 82.9182 118.145 83.4782 117.902C84.0382 117.66 84.3182 117.328 84.3182 116.908C84.3182 116.47 84.0382 116.129 83.4782 115.886C82.9182 115.644 82.1576 115.522 81.1962 115.522C80.2256 115.522 79.4602 115.644 78.9002 115.886C78.3402 116.129 78.0602 116.47 78.0602 116.908ZM97.3245 106.828V113.198H96.4845V111.532H93.4325V112.666H88.0285V107.402H88.8965V109.278H92.5785V107.402H93.4325V108.634H96.4845V106.828H97.3245ZM92.5785 111.952V109.964H88.8965V111.952H92.5785ZM89.5965 113.856H97.3245V116.586H90.4645V118.098H97.8425V118.798H89.6245V115.914H96.4985V114.556H89.5965V113.856ZM96.4845 110.846V109.306H93.4325V110.846H96.4845ZM105.535 108.326V106.87H106.389V108.326H109.077V109.012H102.819V108.326H105.535ZM103.393 111.868C103.393 111.234 103.627 110.725 104.093 110.342C104.569 109.95 105.19 109.754 105.955 109.754C106.73 109.754 107.351 109.946 107.817 110.328C108.293 110.711 108.531 111.224 108.531 111.868C108.531 112.512 108.293 113.03 107.817 113.422C107.351 113.805 106.73 113.996 105.955 113.996C105.199 113.996 104.583 113.805 104.107 113.422C103.631 113.03 103.393 112.512 103.393 111.868ZM104.163 111.868C104.163 112.298 104.327 112.648 104.653 112.918C104.989 113.189 105.423 113.324 105.955 113.324C106.497 113.324 106.935 113.189 107.271 112.918C107.607 112.648 107.775 112.298 107.775 111.868C107.775 111.439 107.603 111.089 107.257 110.818C106.921 110.538 106.487 110.398 105.955 110.398C105.423 110.398 104.989 110.538 104.653 110.818C104.327 111.089 104.163 111.439 104.163 111.868ZM105.017 115.158H113.081V118.994H112.241V115.858H105.017V115.158ZM109.651 107.038H110.491V110.328H112.269V106.828H113.081V114.374H112.269V111.014H110.491V114.29H109.651V107.038ZM125.024 106.828V113.758H124.17V106.828H125.024ZM115.28 112.736C115.858 112.512 116.386 112.186 116.862 111.756C117.347 111.327 117.725 110.832 117.996 110.272C118.276 109.703 118.416 109.11 118.416 108.494V107.318H119.27V108.494C119.27 109.082 119.41 109.647 119.69 110.188C119.97 110.72 120.348 111.187 120.824 111.588C121.309 111.99 121.846 112.293 122.434 112.498L122 113.156C121.281 112.904 120.642 112.512 120.082 111.98C119.531 111.448 119.125 110.832 118.864 110.132C118.612 110.879 118.206 111.542 117.646 112.12C117.086 112.69 116.437 113.119 115.7 113.408L115.28 112.736ZM117.282 114.5H125.024V118.798H117.282V114.5ZM124.198 118.098V115.2H118.108V118.098H124.198ZM141.579 113.31V114.038H136.553V116.558H135.699V114.038H130.561V113.31H141.579ZM132.003 115.41H132.857V117.972H140.347V118.7H132.003V115.41ZM132.045 107.206H132.899V108.872H139.255V107.206H140.123V112.008H132.045V107.206ZM139.255 111.308V109.558H132.899V111.308H139.255ZM153.829 114.108V114.808H150.819V118.994H149.965V114.808H146.647V118.994H145.779V114.808H142.797V114.108H153.829ZM144.141 107.332H152.457V110.286H145.023V111.994H152.723V112.708H144.169V109.614H151.603V108.032H144.141V107.332ZM162.054 112.386L166.198 118H165.176L161.494 113.03L159.688 115.032V118H158.834V107.906H159.688V113.87L165.022 107.892H166.086L162.054 112.386ZM172.614 113.884C172.502 113.259 172.236 112.736 171.816 112.316C171.405 111.887 170.91 111.672 170.332 111.672C169.725 111.672 169.188 111.882 168.722 112.302C168.255 112.722 167.97 113.25 167.868 113.884H172.614ZM167 114.444C167 113.8 167.144 113.203 167.434 112.652C167.732 112.102 168.134 111.663 168.638 111.336C169.151 111.01 169.716 110.846 170.332 110.846C170.92 110.846 171.419 110.986 171.83 111.266C172.25 111.546 172.562 111.836 172.768 112.134C172.982 112.424 173.118 112.638 173.174 112.778C173.379 113.189 173.482 113.679 173.482 114.248C173.482 114.416 173.472 114.566 173.454 114.696H167.84C167.886 115.172 168.026 115.602 168.26 115.984C168.493 116.367 168.792 116.666 169.156 116.88C169.52 117.095 169.912 117.202 170.332 117.202C170.808 117.202 171.228 117.095 171.592 116.88C171.956 116.656 172.24 116.386 172.446 116.068L173.146 116.432C172.875 116.88 172.497 117.258 172.012 117.566C171.526 117.874 170.966 118.028 170.332 118.028C169.716 118.028 169.151 117.865 168.638 117.538C168.134 117.212 167.732 116.773 167.434 116.222C167.144 115.672 167 115.079 167 114.444ZM176.349 121.64H175.467L176.797 118.098L173.997 110.874H174.907L177.217 117.006L179.443 110.874H180.353L176.349 121.64ZM188.879 118H188.067L186.317 112.274L184.581 118H183.783L181.627 110.874H182.523L184.203 116.586L185.869 110.874H186.751L188.501 116.586L190.111 110.874H191.021L188.879 118ZM194.874 117.216C195.331 117.216 195.751 117.095 196.134 116.852C196.526 116.61 196.838 116.278 197.072 115.858C197.305 115.429 197.422 114.958 197.422 114.444C197.422 113.931 197.305 113.464 197.072 113.044C196.838 112.624 196.526 112.293 196.134 112.05C195.751 111.808 195.331 111.686 194.874 111.686C194.416 111.686 193.992 111.808 193.6 112.05C193.217 112.293 192.909 112.624 192.676 113.044C192.452 113.464 192.34 113.931 192.34 114.444C192.34 114.958 192.452 115.429 192.676 115.858C192.909 116.278 193.222 116.61 193.614 116.852C194.006 117.095 194.426 117.216 194.874 117.216ZM191.5 114.444C191.5 113.8 191.649 113.203 191.948 112.652C192.246 112.102 192.652 111.663 193.166 111.336C193.688 111.01 194.258 110.846 194.874 110.846C195.499 110.846 196.073 111.01 196.596 111.336C197.118 111.663 197.529 112.102 197.828 112.652C198.126 113.203 198.276 113.8 198.276 114.444C198.276 115.088 198.126 115.686 197.828 116.236C197.529 116.787 197.118 117.226 196.596 117.552C196.073 117.879 195.499 118.042 194.874 118.042C194.258 118.042 193.688 117.879 193.166 117.552C192.652 117.226 192.246 116.787 191.948 116.236C191.649 115.686 191.5 115.088 191.5 114.444ZM200.643 112.274C200.867 111.77 201.203 111.378 201.651 111.098C202.099 110.809 202.584 110.664 203.107 110.664V111.532C202.687 111.532 202.286 111.663 201.903 111.924C201.52 112.176 201.212 112.512 200.979 112.932C200.755 113.343 200.643 113.772 200.643 114.22V118H199.817V110.664H200.643V112.274ZM207.262 117.272C207.71 117.272 208.13 117.151 208.522 116.908C208.914 116.656 209.227 116.316 209.46 115.886C209.694 115.457 209.81 114.986 209.81 114.472C209.81 113.959 209.694 113.488 209.46 113.058C209.227 112.629 208.914 112.293 208.522 112.05C208.13 111.798 207.71 111.672 207.262 111.672C206.805 111.672 206.38 111.798 205.988 112.05C205.596 112.293 205.284 112.629 205.05 113.058C204.826 113.488 204.714 113.959 204.714 114.472C204.714 114.986 204.826 115.457 205.05 115.886C205.284 116.316 205.596 116.656 205.988 116.908C206.38 117.151 206.805 117.272 207.262 117.272ZM203.818 114.472C203.818 113.828 203.968 113.226 204.266 112.666C204.565 112.106 204.971 111.663 205.484 111.336C206.007 111 206.581 110.832 207.206 110.832C207.757 110.832 208.266 110.986 208.732 111.294C209.199 111.593 209.554 112.008 209.796 112.54V107.626H210.636V118H209.796V116.39C209.544 116.932 209.185 117.356 208.718 117.664C208.261 117.963 207.757 118.112 207.206 118.112C206.581 118.112 206.007 117.949 205.484 117.622C204.971 117.286 204.565 116.838 204.266 116.278C203.968 115.718 203.818 115.116 203.818 114.472ZM226.481 114.206V114.92H221.399V119.008H220.559V114.92H215.491V114.206H226.481ZM216.219 112.47C216.9 112.368 217.577 112.162 218.249 111.854C218.921 111.537 219.471 111.145 219.901 110.678C220.339 110.212 220.559 109.712 220.559 109.18V109.068H216.583V108.368H220.559V106.814H221.399V108.368H225.389V109.068H221.399V109.18C221.399 109.712 221.613 110.212 222.043 110.678C222.481 111.145 223.032 111.537 223.695 111.854C224.367 112.162 225.043 112.368 225.725 112.47L225.417 113.156C224.474 112.998 223.587 112.68 222.757 112.204C221.926 111.719 221.338 111.136 220.993 110.454C220.638 111.145 220.045 111.728 219.215 112.204C218.384 112.68 217.493 112.998 216.541 113.156L216.219 112.47ZM238.703 112.33V113.002H233.621V114.262H237.275V116.796H229.953V118.14H237.667V118.826H229.127V116.166H236.435V114.934H229.085V114.262H232.781V113.002H227.727V112.33H238.703ZM228.371 111.014C229.519 110.921 230.522 110.664 231.381 110.244C232.249 109.824 232.711 109.278 232.767 108.606H228.889V107.934H232.795V106.73H233.635V107.934H237.569V108.606H233.663C233.719 109.278 234.176 109.824 235.035 110.244C235.903 110.664 236.911 110.921 238.059 111.014L237.793 111.672C236.748 111.57 235.805 111.346 234.965 111C234.134 110.646 233.551 110.17 233.215 109.572C232.879 110.17 232.291 110.646 231.451 111C230.62 111.346 229.682 111.57 228.637 111.672L228.371 111.014Z" fill="#212121"/>
<rect x="16.5" y="98.5002" width="241" height="29" rx="12.5" stroke="#BDBDBD"/>
<path d="M59.8975 140.814V152.994H59.0295V140.814H59.8975ZM50.4895 145.98C50.4895 145.15 50.6201 144.417 50.8815 143.782C51.1428 143.148 51.5021 142.658 51.9595 142.312C52.4261 141.967 52.9535 141.794 53.5415 141.794C54.1295 141.794 54.6521 141.967 55.1095 142.312C55.5761 142.658 55.9401 143.148 56.2015 143.782C56.4628 144.417 56.5935 145.15 56.5935 145.98C56.5935 146.82 56.4628 147.562 56.2015 148.206C55.9401 148.841 55.5761 149.331 55.1095 149.676C54.6521 150.022 54.1295 150.194 53.5415 150.194C52.9535 150.194 52.4261 150.022 51.9595 149.676C51.5021 149.331 51.1428 148.841 50.8815 148.206C50.6201 147.562 50.4895 146.82 50.4895 145.98ZM51.3295 145.98C51.3295 146.662 51.4228 147.264 51.6095 147.786C51.7961 148.309 52.0575 148.715 52.3935 149.004C52.7295 149.294 53.1121 149.438 53.5415 149.438C53.9708 149.438 54.3535 149.294 54.6895 149.004C55.0255 148.715 55.2868 148.309 55.4735 147.786C55.6695 147.254 55.7675 146.652 55.7675 145.98C55.7675 145.308 55.6695 144.716 55.4735 144.202C55.2868 143.68 55.0255 143.274 54.6895 142.984C54.3535 142.695 53.9708 142.55 53.5415 142.55C53.1121 142.55 52.7295 142.695 52.3935 142.984C52.0575 143.274 51.7961 143.68 51.6095 144.202C51.4228 144.716 51.3295 145.308 51.3295 145.98ZM68.4518 142.046V149.858H62.9638V142.046H68.4518ZM67.6258 149.158V142.76H63.8038V149.158H67.6258ZM71.2658 140.814H72.1198V152.994H71.2658V140.814ZM81.6681 142.088V142.83H78.6861V144.706C78.6861 145.378 78.8448 146.05 79.1621 146.722C79.4795 147.385 79.8948 147.978 80.4081 148.5C80.9215 149.014 81.4628 149.396 82.0321 149.648L81.5281 150.334C80.8188 149.989 80.1655 149.471 79.5681 148.78C78.9708 148.08 78.5368 147.306 78.2661 146.456C77.9955 147.362 77.5615 148.192 76.9641 148.948C76.3761 149.704 75.7321 150.269 75.0321 150.642L74.5281 149.942C75.0788 149.672 75.6061 149.256 76.1101 148.696C76.6235 148.127 77.0388 147.492 77.3561 146.792C77.6735 146.083 77.8321 145.388 77.8321 144.706V142.83H74.8781V142.088H81.6681ZM83.5161 140.814H84.3701V152.994H83.5161V140.814ZM100.939 147.114V147.828H95.913V150.46H95.059V147.828H89.921V147.114H100.939ZM91.363 149.242H92.217V151.972H99.707V152.7H91.363V149.242ZM91.363 141.416H99.497V145.588H91.363V141.416ZM98.657 144.888V142.102H92.203V144.888H98.657ZM111.271 145.084V140.814H112.111V152.994H111.271V145.798H108.233V145.084H111.271ZM102.227 149.676C102.787 149.387 103.315 148.958 103.809 148.388C104.304 147.819 104.701 147.17 104.999 146.442C105.298 145.714 105.447 144.986 105.447 144.258V141.906H106.315V144.258C106.315 144.958 106.465 145.658 106.763 146.358C107.071 147.049 107.473 147.67 107.967 148.22C108.462 148.771 108.985 149.182 109.535 149.452L109.031 150.138C108.341 149.774 107.711 149.233 107.141 148.514C106.572 147.786 106.157 146.984 105.895 146.106C105.643 147.03 105.233 147.875 104.663 148.64C104.094 149.406 103.464 149.98 102.773 150.362L102.227 149.676ZM127.91 140.814V152.994H127.07V146.61H125.11V152.336H124.284V141.108H125.11V145.868H127.07V140.814H127.91ZM118.264 142.34H119.132V149.004C120.542 149.004 121.942 148.869 123.332 148.598L123.444 149.368C122.67 149.518 121.932 149.62 121.232 149.676C120.532 149.723 119.795 149.746 119.02 149.746H118.264V142.34ZM144.087 146.694V147.422H133.097V146.694H144.087ZM134.441 150.782C134.441 150.092 134.805 149.555 135.533 149.172C136.27 148.79 137.288 148.598 138.585 148.598C139.882 148.598 140.895 148.79 141.623 149.172C142.36 149.555 142.729 150.092 142.729 150.782C142.729 151.473 142.365 152.005 141.637 152.378C140.909 152.752 139.892 152.938 138.585 152.938C137.278 152.938 136.261 152.752 135.533 152.378C134.805 152.005 134.441 151.473 134.441 150.782ZM134.511 141.36H142.687V142.074H135.351V144.706H142.785V145.42H134.511V141.36ZM135.309 150.782C135.309 151.24 135.603 151.604 136.191 151.874C136.779 152.136 137.577 152.266 138.585 152.266C139.593 152.266 140.391 152.136 140.979 151.874C141.567 151.604 141.861 151.24 141.861 150.782C141.861 150.316 141.567 149.952 140.979 149.69C140.4 149.429 139.602 149.298 138.585 149.298C137.577 149.298 136.779 149.429 136.191 149.69C135.603 149.952 135.309 150.316 135.309 150.782ZM152.095 141.752V142.48H149.295V143.166C149.295 143.988 149.575 144.734 150.135 145.406C150.705 146.078 151.428 146.559 152.305 146.848L151.885 147.52C151.195 147.278 150.588 146.918 150.065 146.442C149.543 145.957 149.151 145.397 148.889 144.762C148.637 145.481 148.236 146.111 147.685 146.652C147.144 147.194 146.509 147.604 145.781 147.884L145.333 147.184C145.912 146.979 146.439 146.676 146.915 146.274C147.391 145.873 147.765 145.406 148.035 144.874C148.315 144.333 148.455 143.768 148.455 143.18V142.48H145.613V141.752H152.095ZM146.929 150.754C146.929 150.064 147.275 149.527 147.965 149.144C148.665 148.762 149.636 148.57 150.877 148.57C152.109 148.57 153.075 148.762 153.775 149.144C154.475 149.527 154.825 150.064 154.825 150.754C154.825 151.445 154.475 151.982 153.775 152.364C153.075 152.756 152.109 152.952 150.877 152.952C149.645 152.952 148.679 152.756 147.979 152.364C147.279 151.982 146.929 151.445 146.929 150.754ZM147.755 150.754C147.755 151.212 148.035 151.576 148.595 151.846C149.165 152.117 149.925 152.252 150.877 152.252C151.829 152.252 152.585 152.117 153.145 151.846C153.705 151.576 153.985 151.212 153.985 150.754C153.985 150.297 153.705 149.938 153.145 149.676C152.585 149.406 151.829 149.27 150.877 149.27C149.916 149.27 149.155 149.406 148.595 149.676C148.035 149.938 147.755 150.297 147.755 150.754ZM153.859 140.814H154.727V144.02H156.589V144.748H154.727V148.192H153.859V140.814ZM170.176 140.814V144.552H172.052V145.266H170.176V149.634H169.308V140.814H170.176ZM161.384 141.906H166.718V142.62H162.224V146.68H162.294C163.592 146.68 164.646 146.652 165.458 146.596C166.27 146.54 167.082 146.433 167.894 146.274L167.992 146.974C167.134 147.142 166.289 147.259 165.458 147.324C164.628 147.39 163.573 147.422 162.294 147.422H161.384V141.906ZM162.7 148.766H163.54V151.972H170.75V152.7H162.7V148.766ZM176.253 141.794C176.803 141.794 177.293 141.948 177.723 142.256C178.161 142.564 178.511 143.003 178.773 143.572C179.043 144.142 179.197 144.804 179.235 145.56H182.133V140.814H182.973V152.994H182.133V146.274H179.249C179.221 147.058 179.071 147.749 178.801 148.346C178.539 148.934 178.189 149.392 177.751 149.718C177.312 150.036 176.813 150.194 176.253 150.194C175.674 150.194 175.156 150.022 174.699 149.676C174.251 149.331 173.901 148.841 173.649 148.206C173.397 147.562 173.271 146.82 173.271 145.98C173.271 145.14 173.397 144.408 173.649 143.782C173.901 143.148 174.251 142.658 174.699 142.312C175.156 141.967 175.674 141.794 176.253 141.794ZM174.083 145.98C174.083 146.662 174.171 147.264 174.349 147.786C174.535 148.309 174.792 148.715 175.119 149.004C175.455 149.294 175.833 149.438 176.253 149.438C176.673 149.438 177.046 149.294 177.373 149.004C177.699 148.715 177.951 148.309 178.129 147.786C178.315 147.264 178.409 146.662 178.409 145.98C178.409 145.308 178.315 144.716 178.129 144.202C177.951 143.68 177.699 143.274 177.373 142.984C177.046 142.695 176.673 142.55 176.253 142.55C175.833 142.55 175.455 142.695 175.119 142.984C174.792 143.274 174.535 143.68 174.349 144.202C174.171 144.716 174.083 145.308 174.083 145.98ZM189.245 141.724C189.87 141.724 190.426 141.846 190.911 142.088C191.396 142.322 191.774 142.653 192.045 143.082C192.325 143.502 192.465 143.988 192.465 144.538C192.465 145.098 192.33 145.593 192.059 146.022C191.788 146.442 191.406 146.769 190.911 147.002C190.426 147.236 189.87 147.352 189.245 147.352C188.62 147.352 188.06 147.236 187.565 147.002C187.08 146.769 186.697 146.442 186.417 146.022C186.146 145.593 186.011 145.098 186.011 144.538C186.011 143.988 186.146 143.502 186.417 143.082C186.697 142.653 187.08 142.322 187.565 142.088C188.06 141.846 188.62 141.724 189.245 141.724ZM185.353 149.508C186.94 149.508 188.382 149.485 189.679 149.438C190.976 149.382 192.213 149.266 193.389 149.088L193.473 149.718C192.26 149.952 191.023 150.101 189.763 150.166C188.512 150.222 187.084 150.25 185.479 150.25L185.353 149.508ZM186.865 144.538C186.865 144.94 186.968 145.299 187.173 145.616C187.378 145.924 187.658 146.172 188.013 146.358C188.377 146.536 188.788 146.624 189.245 146.624C189.702 146.624 190.108 146.536 190.463 146.358C190.827 146.172 191.112 145.924 191.317 145.616C191.522 145.299 191.625 144.94 191.625 144.538C191.625 143.941 191.401 143.451 190.953 143.068C190.505 142.676 189.936 142.48 189.245 142.48C188.554 142.48 187.985 142.676 187.537 143.068C187.089 143.451 186.865 143.941 186.865 144.538ZM194.243 140.814H195.097V152.994H194.243V140.814ZM211.736 147.31V148.038H206.71V150.558H205.856V148.038H200.718V147.31H211.736ZM202.16 149.41H203.014V151.972H210.504V152.7H202.16V149.41ZM202.202 141.206H203.056V142.872H209.412V141.206H210.28V146.008H202.202V141.206ZM209.412 145.308V143.558H203.056V145.308H209.412ZM218.008 150.698V147.674H213.99V146.96H215.964V142.774H213.976V142.046H222.908V142.774H220.92V146.96H222.894V147.674H218.848V150.698H223.986V151.426H212.968V150.698H218.008ZM220.066 146.96V142.774H216.818V146.96H220.066Z" fill="#212121"/>
<rect x="16.5" y="132.5" width="241" height="29" rx="12.5" stroke="#BDBDBD"/>
<path d="M127.852 180.176V181.534H126.466V180.176H127.852ZM137.695 180.176V181.534H136.309V180.176H137.695ZM147.539 180.176V181.534H146.153V180.176H147.539Z" fill="#212121"/>
<rect x="16.5" y="166.5" width="241" height="29" rx="12.5" stroke="#BDBDBD"/>
<rect x="0.5" y="0.500244" width="273" height="215" rx="1.5" stroke="#BDBDBD"/>
</svg>
